<svg version="1.1" xmlns="http://www.w3.org/2000/svg" xmlns:xlink="http://www.w3.org/1999/xlink" width="800px" height="800px" viewBox="0,0,256,256"><g fill="#ffffff" fill-rule="evenodd" stroke="none" stroke-width="1" stroke-linecap="butt" stroke-linejoin="miter" stroke-miterlimit="10" stroke-dasharray="" stroke-dashoffset="0" font-family="none" font-weight="none" font-size="none" text-anchor="none" style="mix-blend-mode: normal"><g transform="translate(0.15872,0.1536) scale(10.24,10.24)"><g id="Page-1"><g transform="translate(-469,-1041)" id="Icon-Set-Filled"><path d="M487.148,1053.48l5.665,-5.66c1.563,-1.56 1.563,-4.1 0,-5.66c-1.565,-1.57 -4.101,-1.57 -5.665,0l-5.664,5.66l-5.664,-5.66c-1.563,-1.57 -4.099,-1.57 -5.664,0c-1.563,1.56 -1.563,4.1 0,5.66l5.664,5.66l-5.664,5.67c-1.563,1.56 -1.563,4.1 0,5.66c1.565,1.57 4.101,1.57 5.664,0l5.664,-5.66l5.664,5.66c1.564,1.57 4.1,1.57 5.665,0c1.563,-1.56 1.563,-4.1 0,-5.66l-5.665,-5.67" id="cross"></path></g></g></g></g></svg>