<svg version="1.1" xmlns="http://www.w3.org/2000/svg" xmlns:xlink="http://www.w3.org/1999/xlink" width="800px" height="800px" viewBox="0,0,256,256"><g fill="#ff597a" fill-rule="nonzero" stroke="none" stroke-width="1" stroke-linecap="butt" stroke-linejoin="miter" stroke-miterlimit="10" stroke-dasharray="" stroke-dashoffset="0" font-family="none" font-weight="none" font-size="none" text-anchor="none" style="mix-blend-mode: normal"><g transform="translate(-0.00063,5.3285) scale(0.25,0.25)"><path d="M890.378,185.931v-87.011l-394.703,87.011h-33.281l-394.703,-87.011v87.011h-41.486v695.564h431.986v0.957l4.205,-0.957h33.281l4.205,0.957v-0.957h497.918v-695.564h-107.421zM109.383,185.931v-35.199l348.804,76.934v603.011l-348.804,-76.973v-567.774zM848.722,150.654v602.969l-348.844,76.934v-602.969zM961.559,558.27h-48.986v-49.111h48.986zM88.513,831.553v-39.819l180.482,39.819zM876.463,790.151v41.319h-187.354zM411.698,339.134l-258.582,-86.096l5.747,-17.164l7.497,-22.368l258.582,86.096l-13.247,39.529zM411.698,450.802l-258.582,-86.096l13.164,-39.529l258.582,86.096zM411.698,562.518l-258.582,-86.096l13.164,-39.529l258.582,86.096zM411.698,674.106l-258.582,-86.055l13.164,-39.529l258.582,86.055zM411.698,772.951l-258.582,-86.055l13.164,-39.529l258.582,86.055zM546.405,339.134l-13.164,-39.529l258.54,-86.096l7.497,22.368l5.79,17.164l-258.666,86.096zM546.405,450.802l-13.164,-39.529l258.54,-86.096l13.164,39.529zM546.405,562.518l-13.164,-39.529l258.54,-86.096l13.164,39.529zM546.405,674.106l-13.164,-39.529l258.54,-86.055l13.164,39.529zM546.405,772.951l-13.164,-39.529l258.54,-86.055l13.164,39.529z"></path></g></g></svg>