<svg version="1.1" xmlns="http://www.w3.org/2000/svg" xmlns:xlink="http://www.w3.org/1999/xlink" width="800px" height="800px" viewBox="0,0,256,256"><g fill="#ff597a" fill-rule="nonzero" stroke="none" stroke-width="1" stroke-linecap="butt" stroke-linejoin="miter" stroke-miterlimit="10" stroke-dasharray="" stroke-dashoffset="0" font-family="none" font-weight="none" font-size="none" text-anchor="none" style="mix-blend-mode: normal"><g transform="translate(21.33333,-1.04157) scale(12.54902,12.54902)"><path d="M16.417,10.283c0,4.37244 -3.54456,7.917 -7.917,7.917c-4.37244,0 -7.917,-3.54456 -7.917,-7.917c0,-4.37244 3.54456,-7.917 7.917,-7.917c2.0998,-0.00027 4.11367,0.83376 5.59846,2.31854c1.48478,1.48478 2.31881,3.49866 2.31854,5.59846zM9.613,10.293l3.032,-3.033c0.30397,-0.31017 0.30146,-0.80728 -0.00563,-1.11437c-0.30709,-0.30709 -0.8042,-0.3096 -1.11437,-0.00563l-3.031,3.033l-3.034,-3.033c-0.31017,-0.30397 -0.80728,-0.30146 -1.11437,0.00563c-0.30709,0.30709 -0.3096,0.8042 -0.00563,1.11437l3.034,3.033l-3.033,3.033c-0.29259,0.31194 -0.28468,0.79983 0.01787,1.10211c0.30255,0.30228 0.79045,0.30976 1.10213,0.01689l3.032,-3.033l3.033,3.033c0.31017,0.30397 0.80728,0.30146 1.11437,-0.00563c0.30709,-0.30709 0.3096,-0.8042 0.00563,-1.11437z"></path></g></g></svg>