<svg version="1.1" xmlns="http://www.w3.org/2000/svg" xmlns:xlink="http://www.w3.org/1999/xlink" width="800px" height="800px" viewBox="0,0,256,256"><g fill="#ffffff" fill-rule="nonzero" stroke="none" stroke-width="1" stroke-linecap="butt" stroke-linejoin="miter" stroke-miterlimit="10" stroke-dasharray="" stroke-dashoffset="0" font-family="none" font-weight="none" font-size="none" text-anchor="none" style="mix-blend-mode: normal"><g transform="translate(-5.58494,0) scale(16,16)"><path d="M6.75,1c0.41421,0 0.75,0.33579 0.75,0.75v6.25c0,0.27614 0.22386,0.5 0.5,0.5c0.27614,0 0.5,-0.22386 0.5,-0.5v-2.533l0.086,-0.004c0.317,-0.012 0.637,-0.008 0.816,0.027c0.134,0.027 0.294,0.096 0.448,0.182c0.077,0.042 0.15,0.147 0.15,0.314v2.014c0,0.27614 0.22386,0.5 0.5,0.5c0.27614,0 0.5,-0.22386 0.5,-0.5v-1.565l0.106,-0.01c0.316,-0.024 0.584,-0.01 0.708,0.04c0.118,0.046 0.3,0.207 0.486,0.43c0.081,0.096 0.15,0.19 0.2,0.259v1.346c0,0.27614 0.22386,0.5 0.5,0.5c0.27614,0 0.5,-0.22386 0.5,-0.5v-1h0.342c0.28262,0 0.55204,0.11958 0.74163,0.32917c0.18959,0.20959 0.28163,0.48962 0.25337,0.77083l-0.271,2.715c-0.035,0.34891 -0.143,0.68655 -0.317,0.991l-1.395,2.442c-0.08898,0.15578 -0.2546,0.25194 -0.434,0.252h-6.302c-0.18922,-0.00001 -0.36223,-0.10683 -0.447,-0.276l-1.232,-2.465l-2.512,-4.185c-0.13354,-0.22389 -0.0795,-0.51217 0.12605,-0.6725c0.20555,-0.16033 0.49832,-0.14254 0.68295,0.0415l2.41,2.41c0.14289,0.14325 0.35802,0.18626 0.545,0.10897c0.18698,-0.07729 0.30896,-0.25965 0.309,-0.46197v-7.75c0,-0.41421 0.33579,-0.75 0.75,-0.75zM8.5,4.466v-2.716c0,-0.9665 -0.7835,-1.75 -1.75,-1.75c-0.9665,0 -1.75,0.7835 -1.75,1.75v6.543l-1.557,-1.557c-0.54202,-0.53903 -1.40043,-0.59057 -2.00305,-0.12026c-0.60262,0.47031 -0.76116,1.31553 -0.36995,1.97226l2.491,4.153l1.215,2.43c0.2542,0.50822 0.77375,0.82917 1.342,0.829h6.302c0.5382,-0.00017 1.03505,-0.28867 1.302,-0.756l1.395,-2.441c0.24388,-0.42669 0.39516,-0.89996 0.444,-1.389l0.271,-2.715c0.05622,-0.56224 -0.12801,-1.12203 -0.50715,-1.54099c-0.37914,-0.41896 -0.91781,-0.65799 -1.48285,-0.65801h-0.581c-0.06243,-0.08465 -0.12747,-0.16736 -0.195,-0.248c-0.191,-0.229 -0.51,-0.568 -0.88,-0.716c-0.364,-0.146 -0.846,-0.132 -1.158,-0.108l-0.132,0.012c-0.10647,-0.27253 -0.30446,-0.49951 -0.56,-0.642c-0.23006,-0.13268 -0.47888,-0.22978 -0.738,-0.288c-0.31,-0.062 -0.739,-0.058 -1.05,-0.046zM10.594,6.491z"></path></g></g></svg>