<svg version="1.1" xmlns="http://www.w3.org/2000/svg" xmlns:xlink="http://www.w3.org/1999/xlink" width="800px" height="800px" viewBox="0,0,256,256"><g fill="none" fill-rule="nonzero" stroke="none" stroke-width="1" stroke-linecap="butt" stroke-linejoin="miter" stroke-miterlimit="10" stroke-dasharray="" stroke-dashoffset="0" font-family="none" font-weight="none" font-size="none" text-anchor="none" style="mix-blend-mode: normal"><g transform="scale(12.8,12.8)"><rect x="0" y="0" width="20" height="20" fill="none"></rect><g fill="#ff597a"><path d="M7,4.5c-0.3,0 -0.5,0.3 -0.5,0.5v2.5h-1v-2.5c0,-0.3 -0.2,-0.5 -0.5,-0.5c-0.3,0 -0.5,0.3 -0.5,0.5v2.5h-1v-2.5c0,-0.3 -0.2,-0.5 -0.5,-0.5c-0.3,0 -0.5,0.3 -0.5,0.5v3.3c0,0.9 0.7,1.6 1.5,1.7v7c0,0.6 0.4,1 1,1c0.6,0 1,-0.4 1,-1v-7c0.8,-0.1 1.5,-0.8 1.5,-1.7v-3.3c0,-0.2 -0.2,-0.5 -0.5,-0.5zM9,5v6h1v6c0,0.6 0.4,1 1,1c0.6,0 1,-0.4 1,-1v-15c-1.7,0 -3,1.3 -3,3zM16,4c-1.4,0 -2.5,1.5 -2.5,3.3c-0.1,1.2 0.5,2.3 1.5,3v6.7c0,0.6 0.4,1 1,1c0.6,0 1,-0.4 1,-1v-6.7c1,-0.7 1.6,-1.8 1.5,-3c0,-1.8 -1.1,-3.3 -2.5,-3.3z"></path></g></g></g></svg>