<svg version="1.1" xmlns="http://www.w3.org/2000/svg" xmlns:xlink="http://www.w3.org/1999/xlink" width="800px" height="800px" viewBox="0,0,256,256"><g fill="#ff597a" fill-rule="nonzero" stroke="none" stroke-width="1" stroke-linecap="butt" stroke-linejoin="miter" stroke-miterlimit="10" stroke-dasharray="" stroke-dashoffset="0" font-family="none" font-weight="none" font-size="none" text-anchor="none" style="mix-blend-mode: normal"><g transform="scale(4,4)"><path d="M63,60h-6v-18.242c3.656,1.955 3.766,5.918 3.766,5.918c0.697,-5.52 -1.842,-7.643 -3.823,-8.463c-0.02984,-0.22427 -0.07257,-0.44664 -0.128,-0.666c4.02,-3.277 7.185,-1.914 7.185,-1.914c-3.598,-4.347 -6.668,-2.432 -8.414,-0.492c-1.13668,-1.35693 -2.81588,-2.14087 -4.586,-2.141h-5v-8c0,-3.308 -2.691,-6 -6,-6h-1v-6c0,-1.077 -0.531,-2.36 -1.293,-3.121l-1.586,-1.587c-0.761,-0.76 -2.045,-1.292 -3.121,-1.292v-1.442c2.666,1.533 3.332,-1.534 6,0v-5.115c-2.668,-1.533 -3.334,1.534 -6,0v-0.443c0,-0.55 -0.451,-1 -1,-1c-0.551,0 -1,0.45 -1,1v7c-1.076,0 -2.36,0.532 -3.121,1.292l-1.586,1.587c-0.762,0.761 -1.293,2.044 -1.293,3.121v6h-1c-3.309,0 -6,2.692 -6,6v8h-5c-1.7706,0.0005 -3.45026,0.78432 -4.588,2.141c-1.744,-1.94 -4.815,-3.856 -8.412,0.492c0,0 3.164,-1.363 7.186,1.916c-0.05552,0.21866 -0.09826,0.44037 -0.128,0.664c-1.981,0.82 -4.521,2.943 -3.823,8.463c0,0 0.109,-3.965 3.766,-5.918v18.242h-6.001c-0.551,0 -1,0.451 -1,1v2c0,0.551 0.449,1 1,1h62c0.549,0 1,-0.449 1,-1v-2c0,-0.549 -0.451,-1 -1,-1M54.028,41.039c0.167,-0.047 0.316,-0.102 0.493,-0.143c0.336,0.063 0.646,0.145 0.947,0.234c0.075,0.635 0.159,1.443 0.234,2.449h-1.727c0.027,-0.821 0.044,-1.673 0.053,-2.54M53.967,43.928c0.757,0.959 1.393,0.625 1.774,0.215c0.057,0.836 0.104,1.781 0.139,2.834h-2.055c0.056,-0.979 0.105,-1.989 0.142,-3.049M53,41.365c0.00866,-0.00246 0.01704,-0.00581 0.025,-0.01c-0.025,1.818 -0.09,3.537 -0.177,5.15c-0.17232,-0.30758 -0.49548,-0.50002 -0.848,-0.505h-3.639c0.23,-0.936 0.75,-2.023 1.832,-3h1.807c0.549,0 1,-0.449 1,-1v-0.635M11,41.367v0.633c0,0.551 0.449,1 1,1h1.807c1.081,0.977 1.601,2.064 1.831,3h-3.638c-0.35262,0.00462 -0.67609,0.19665 -0.849,0.504c-0.088,-1.611 -0.151,-3.33 -0.177,-5.148l0.026,0.011M8.531,41.131c0.3,-0.09 0.61,-0.172 0.945,-0.234c0.178,0.043 0.327,0.096 0.495,0.143c0.01,0.867 0.026,1.719 0.051,2.541h-1.726c0.076,-1.007 0.159,-1.815 0.235,-2.45M8.258,44.143c0.383,0.41 1.019,0.744 1.775,-0.217c0.035,1.061 0.084,2.07 0.142,3.051h-2.058c0.035,-1.053 0.084,-1.998 0.141,-2.834M8.102,47.469c0.434,0.424 1.187,0.828 2.098,-0.047c0.063,1.037 0.135,2.018 0.213,2.949h-2.343c-0.002,-1.035 0.008,-2.008 0.032,-2.902M8.072,50.836c0.462,0.467 1.322,0.947 2.356,-0.266c0.1,1.158 0.206,2.227 0.313,3.197h-2.605c-0.03369,-0.97669 -0.05502,-1.95377 -0.064,-2.931M8.147,54.053c0.43,0.451 1.414,1.174 2.647,0.182c0.068,0.596 0.138,1.139 0.205,1.652v0.113c0,0.078 0.027,0.148 0.045,0.223c0.046,0.336 0.088,0.648 0.132,0.941h-2.873c-0.06561,-1.03627 -0.11762,-2.07336 -0.156,-3.111M8.512,60c-0.078,-0.914 -0.143,-1.795 -0.198,-2.652c0.382,0.443 1.497,1.441 2.91,0.139c0.24,1.613 0.419,2.513 0.419,2.513h-3.131M22,48.063l-1.236,0.937l0.469,-1.525l-1.233,-0.946l1.525,-0.006l0.475,-1.523l0.475,1.523l1.525,0.006l-1.232,0.945l0.468,1.526l-1.236,-0.937M24,63l1.333,-1h13.334l1.333,1h-16M28.236,49l-1.236,-0.937l-1.236,0.937l0.469,-1.525l-1.233,-0.946l1.525,-0.006l0.475,-1.523l0.475,1.523l1.525,0.006l-1.232,0.945l0.468,1.526M28,50v10h-3v-10h3M33.236,49l-1.236,-0.937l-1.236,0.937l0.469,-1.525l-1.233,-0.946l1.525,-0.006l0.475,-1.523l0.475,1.523l1.525,0.006l-1.232,0.945l0.468,1.526M33,50v10h-2v-10h2M38.236,49l-1.236,-0.937l-1.236,0.937l0.469,-1.525l-1.233,-0.946l1.525,-0.006l0.475,-1.523l0.475,1.523l1.525,0.006l-1.232,0.945l0.468,1.526M39,50v10h-3v-10h3M40.764,49l0.469,-1.525l-1.233,-0.946l1.525,-0.006l0.475,-1.523l0.475,1.523l1.525,0.006l-1.232,0.945l0.468,1.526l-1.236,-0.937l-1.236,0.937M52,53h-4c-0.551,0 -1,0.451 -1,1v2c0,0.551 0.449,1 1,1h3.833c-0.13151,0.93833 -0.28422,1.87357 -0.458,2.805l-0.04,0.195h-8.335v-10h2v-6h-26v6h2v10h-8.338l-0.039,-0.195c-0.17379,-0.93138 -0.32617,-1.86662 -0.457,-2.805h3.834c0.549,0 1,-0.449 1,-1v-2c0,-0.549 -0.451,-1 -1,-1h-4c-0.11104,0.00279 -0.22072,0.02513 -0.324,0.066c-0.11834,-1.10221 -0.22168,-2.20598 -0.31,-3.311c0.17534,0.15468 0.40021,0.24158 0.634,0.245h4c0.549,0 1,-0.449 1,-1v-2c0,-0.414 -0.258,-0.771 -0.618,-0.922c0.177,-1.191 0.021,-2.213 -0.352,-3.084c0.534,-0.017 0.97,-0.455 0.97,-0.994v-2c0,-0.549 -0.451,-1 -1,-1h-4c-0.1416,0.00075 -0.28128,0.03286 -0.409,0.094c-0.11,-0.047 -0.222,-0.096 -0.327,-0.139c4.877,-4.582 8.736,-1.15 8.736,-1.15c-0.51079,-0.69154 -1.12498,-1.30033 -1.821,-1.805h1.821v-10c0,-2.2 1.799,-4 4,-4h3v-8c0,-0.55 0.318,-1.318 0.707,-1.708l1.586,-1.585c0.389,-0.389 1.156,-0.707 1.707,-0.707h2c0.549,0 1.318,0.318 1.707,0.708l1.586,1.585c0.389,0.389 0.707,1.157 0.707,1.707v8h3c2.199,0 4,1.8 4,4v10h1.82c-0.69592,0.50444 -1.30981,1.11328 -1.82,1.805c0,0 3.858,-3.432 8.734,1.15c-0.105,0.043 -0.217,0.092 -0.326,0.139c-0.12732,-0.06129 -0.2667,-0.0934 -0.408,-0.094h-4c-0.551,0 -1,0.451 -1,1v2c0.00297,0.53807 0.43118,0.97733 0.969,0.994c-0.373,0.871 -0.528,1.893 -0.353,3.084c-0.36,0.151 -0.616,0.508 -0.616,0.922v2c0,0.551 0.449,1 1,1h4c0.23324,-0.00381 0.45755,-0.09028 0.633,-0.244c-0.08856,1.10497 -0.19157,2.20873 -0.309,3.311c-0.10315,-0.04146 -0.21287,-0.06415 -0.324,-0.067M55.486,60h-3.131c0,0 0.179,-0.9 0.418,-2.512c1.414,1.301 2.528,0.303 2.911,-0.141c-0.055,0.858 -0.12,1.739 -0.198,2.653M55.695,57.164h-2.873l0.129,-0.926c0.021,-0.078 0.049,-0.154 0.049,-0.238v-0.123c0.067,-0.51 0.136,-1.051 0.205,-1.645c1.232,0.994 2.216,0.271 2.646,-0.18c-0.037,0.993 -0.087,2.026 -0.156,3.112M55.862,53.768h-2.606c0.109,-0.971 0.216,-2.039 0.314,-3.199c1.033,1.213 1.894,0.736 2.355,0.27c-0.006,0.923 -0.028,1.899 -0.063,2.929M53.586,50.371c0.078,-0.932 0.151,-1.912 0.215,-2.951c0.909,0.875 1.663,0.473 2.096,0.051c0.023,0.893 0.033,1.865 0.03,2.9h-2.341"></path><path d="M21.119,42.422v-2.027h1.836v2.027h1.111v-4.842h-1.111v1.859h-1.836v-1.859h-1.119v4.842z"></path><path d="M27.943,37.5c-1.455,0 -2.398,1.086 -2.398,2.535c0,1.381 0.855,2.465 2.318,2.465c1.44,0 2.422,-0.963 2.422,-2.549c0,-1.338 -0.828,-2.451 -2.342,-2.451M27.922,41.631c-0.746,0 -1.199,-0.668 -1.199,-1.617c0,-0.939 0.438,-1.645 1.191,-1.645c0.771,0 1.193,0.748 1.193,1.617c0,0.942 -0.431,1.645 -1.185,1.645"></path><path d="M31.17,38.498h1.324v3.924h1.117v-3.924h1.348v-0.918h-3.789z"></path><path d="M37.404,40.373h1.813v-0.891h-1.813v-1.003h1.922v-0.899h-3.045v4.842h3.147v-0.899h-2.024z"></path><path d="M42.039,37.58h-1.119v4.842h3.08v-0.92h-1.961z"></path><path d="M34,24h-4c-0.551,0 -1,0.45 -1,1v8c0,0.551 0.449,1 1,1h4c0.549,0 1,-0.449 1,-1v-8c0,-0.55 -0.451,-1 -1,-1"></path><path d="M30,20c0.549,0 1,-0.45 1,-1v-4c0,-0.55 -0.451,-1 -1,-1c-0.551,0 -1,0.45 -1,1v4c0,0.55 0.449,1 1,1"></path><path d="M34,14c-0.551,0 -1,0.45 -1,1v4c0,0.55 0.449,1 1,1c0.549,0 1,-0.45 1,-1v-4c0,-0.55 -0.451,-1 -1,-1"></path><path d="M23,28h3c0.549,0 1,-0.449 1,-1v-2c0,-0.55 -0.451,-1 -1,-1h-3c-0.551,0 -1,0.45 -1,1v2c0,0.55 0.449,1 1,1"></path><path d="M27,33v-2c0,-0.549 -0.451,-1 -1,-1h-3c-0.551,0 -1,0.451 -1,1v2c0,0.551 0.449,1 1,1h3c0.549,0 1,-0.449 1,-1"></path><path d="M38,28h3c0.549,0 1,-0.449 1,-1v-2c0,-0.55 -0.451,-1 -1,-1h-3c-0.551,0 -1,0.45 -1,1v2c0,0.55 0.449,1 1,1"></path><path d="M38,34h3c0.549,0 1,-0.449 1,-1v-2c0,-0.549 -0.451,-1 -1,-1h-3c-0.551,0 -1,0.451 -1,1v2c0,0.551 0.449,1 1,1"></path></g></g></svg>