<svg version="1.1" xmlns="http://www.w3.org/2000/svg" xmlns:xlink="http://www.w3.org/1999/xlink" width="800px" height="800px" viewBox="0,0,256,256"><g fill="#ff597a" fill-rule="nonzero" stroke="none" stroke-width="1" stroke-linecap="butt" stroke-linejoin="miter" stroke-miterlimit="10" stroke-dasharray="" stroke-dashoffset="0" font-family="none" font-weight="none" font-size="none" text-anchor="none" style="mix-blend-mode: normal"><g transform="scale(0.21333,0.21333)"><path d="M600,0c-331.371,0 -600,268.629 -600,600c0,331.371 268.629,600 600,600c331.371,0 600,-268.629 600,-600c0,-331.371 -268.629,-600 -600,-600zM579.639,221.777h40.723v120.044h-40.723v-120.044zM413.086,257.812l68.848,98.291l-33.398,23.438l-68.848,-98.291l33.398,-23.438zM786.914,257.812l33.398,23.438l-68.848,98.291l-33.398,-23.438zM600,374.634c99.754,0 180.615,60.549 180.615,135.278l-102.612,310.767h-156.006l-102.612,-310.767c0,-74.73 80.867,-135.278 180.615,-135.278zM275.61,410.669l112.793,41.089l-13.989,38.306l-112.72,-41.089zM924.39,410.669l13.916,38.306l-112.793,41.089l-13.916,-38.306zM382.983,585.938l10.547,39.404l-115.942,31.055l-10.547,-39.404zM817.017,585.938l115.942,31.055l-10.547,39.404l-115.942,-31.055zM519.727,843.384h160.547v53.979h-160.547zM519.727,924.243h160.547v53.979h-160.547z" id="path12158"></path></g></g></svg>