<svg width="600" height="137" viewBox="0 0 600 137" fill="none" xmlns="http://www.w3.org/2000/svg">
<rect width="600" height="137" fill="#FD393F"/>
<path d="M100.617 26.0078C99.1523 29.849 97.6875 33.5599 96.2227 37.1406C94.7904 40.7214 93.3581 44.2044 91.9258 47.5898C90.526 50.9753 89.11 54.2956 87.6777 57.5508C86.2454 60.806 84.7969 64.0124 83.332 67.1699C85.7734 66.8118 88.2474 66.4375 90.7539 66.0469C93.293 65.6562 95.6367 65.2982 97.7852 64.9727C99.9661 64.6471 101.838 64.3704 103.4 64.1426C104.963 63.9147 105.988 63.752 106.477 63.6543C109.243 57.0137 111.896 50.2917 114.436 43.4883C117.007 36.6523 119.562 29.6862 122.102 22.5898C123.046 23.5339 124.071 24.5592 125.178 25.666C126.285 26.7728 127.342 27.8307 128.352 28.8398C129.361 29.849 130.24 30.7441 130.988 31.5254C131.737 32.2741 132.242 32.7949 132.502 33.0879C130.223 37.9382 127.993 42.6745 125.812 47.2969C123.632 51.9193 121.467 56.444 119.318 60.8711C122.215 60.1549 124.527 59.5039 126.252 58.918C127.977 58.2995 129.279 57.8275 130.158 57.502C131.07 57.1439 131.639 56.9323 131.867 56.8672C132.095 56.8021 132.176 56.916 132.111 57.209C132.014 57.4694 131.802 57.9414 131.477 58.625C131.151 59.276 130.744 60.0247 130.256 60.8711C129.8 61.7174 129.279 62.6126 128.693 63.5566C128.107 64.4681 127.521 65.3145 126.936 66.0957C126.382 66.877 125.845 67.528 125.324 68.0488C124.803 68.5697 124.364 68.8464 124.006 68.8789C123.322 69.0091 122.525 69.1393 121.613 69.2695C120.832 69.3997 119.855 69.5625 118.684 69.7578C117.544 69.9206 116.226 70.1159 114.729 70.3438C111.343 77.2448 108.153 83.5111 105.158 89.1426C102.196 94.7415 99.5104 99.4616 97.1016 103.303C95.8971 102.326 94.7578 101.35 93.6836 100.373C92.6094 99.429 91.5514 98.778 90.5098 98.4199C89.8913 94.5788 88.7357 90.4121 87.043 85.9199C85.3503 81.3952 83.2832 76.903 80.8418 72.4434C78.5306 77.3262 76.1706 82.1764 73.7617 86.9941C71.3529 91.7793 68.7975 96.7109 66.0957 101.789C64.696 100.65 63.3613 99.6406 62.0918 98.7617C60.7897 97.9154 59.6992 97.1667 58.8203 96.5156C60.2526 93.6836 61.8151 90.4609 63.5078 86.8477C65.2005 83.2018 66.9421 79.263 68.7324 75.0312C70.5553 70.7669 72.3945 66.2747 74.25 61.5547C76.1055 56.8021 77.9447 51.903 79.7676 46.8574C81.5905 41.8118 83.3646 36.6849 85.0898 31.4766C86.8151 26.2357 88.4264 21.0111 89.9238 15.8027C90.8678 16.7142 91.8281 17.6257 92.8047 18.5371C93.8138 19.416 94.7904 20.2949 95.7344 21.1738C96.7109 22.0202 97.6061 22.8665 98.4199 23.7129C99.2663 24.5267 99.9987 25.2917 100.617 26.0078ZM94.5625 90.4609C97.4596 84.4062 100.275 78.2376 103.01 71.9551C98.2246 72.5736 92.6745 73.2083 86.3594 73.8594C87.2383 75.2266 88.0684 76.6589 88.8496 78.1562C89.6634 79.6536 90.4121 81.1348 91.0957 82.5996C91.8118 84.0645 92.4466 85.4805 93 86.8477C93.5859 88.1823 94.1068 89.3867 94.5625 90.4609ZM163.947 80.9883C160.952 83.918 158.12 86.3757 155.451 88.3613C152.814 90.347 150.292 91.9421 147.883 93.1465C145.474 94.3509 143.163 95.2135 140.949 95.7344C138.768 96.2552 136.636 96.5156 134.553 96.5156C133.674 96.5156 132.697 96.1901 131.623 95.5391C130.549 94.888 129.556 94.0905 128.645 93.1465C127.701 92.235 126.919 91.2747 126.301 90.2656C125.682 89.2565 125.373 88.3939 125.373 87.6777C125.373 85.0085 125.747 82.5671 126.496 80.3535C127.212 78.1074 128.173 76.0892 129.377 74.2988C130.581 72.5085 131.949 70.9297 133.479 69.5625C135.041 68.1953 136.652 67.056 138.312 66.1445C140.005 65.2331 141.682 64.5495 143.342 64.0938C145.002 63.638 146.532 63.4102 147.932 63.4102C148.941 63.4102 149.934 63.7031 150.91 64.2891C151.919 64.875 152.831 65.5911 153.645 66.4375C154.458 67.2839 155.109 68.179 155.598 69.123C156.118 70.0345 156.379 70.832 156.379 71.5156C156.379 72.6224 155.907 73.7617 154.963 74.9336C154.051 76.0729 152.749 77.2448 151.057 78.4492C149.364 79.6536 147.329 80.8906 144.953 82.1602C142.577 83.3971 139.956 84.6504 137.092 85.9199C136.994 86.7012 136.945 87.4661 136.945 88.2148C136.945 89.224 137.157 89.9076 137.58 90.2656C138.036 90.6237 138.866 90.8027 140.07 90.8027C142.219 90.8027 144.237 90.4447 146.125 89.7285C148.046 89.0124 149.885 88.0846 151.643 86.9453C153.4 85.806 155.093 84.5039 156.721 83.0391C158.348 81.5742 159.96 80.0931 161.555 78.5957L163.947 80.9883ZM146.76 68.7812C146.109 68.7812 145.393 69.1393 144.611 69.8555C143.83 70.5391 143.049 71.4505 142.268 72.5898C141.486 73.7292 140.738 75.0475 140.021 76.5449C139.305 78.0098 138.687 79.5397 138.166 81.1348C139.37 80.3535 140.542 79.5234 141.682 78.6445C142.854 77.7656 143.895 76.8542 144.807 75.9102C145.718 74.9336 146.451 73.9408 147.004 72.9316C147.557 71.9225 147.834 70.9134 147.834 69.9043C147.834 69.6113 147.736 69.3509 147.541 69.123C147.378 68.8952 147.118 68.7812 146.76 68.7812ZM171.906 89.582C172.427 89.582 173.127 89.3542 174.006 88.8984C174.917 88.4427 175.91 87.873 176.984 87.1895C178.059 86.4733 179.182 85.6921 180.354 84.8457C181.525 83.9993 182.616 83.1693 183.625 82.3555C184.667 81.5417 185.594 80.793 186.408 80.1094C187.222 79.4258 187.824 78.9212 188.215 78.5957C188.508 78.8887 188.85 79.263 189.24 79.7188C189.663 80.1745 190.054 80.5977 190.412 80.9883C189.696 81.7044 188.801 82.5833 187.727 83.625C186.652 84.6341 185.48 85.6758 184.211 86.75C182.974 87.8242 181.672 88.8984 180.305 89.9727C178.97 91.0469 177.652 92.0072 176.35 92.8535C175.08 93.6999 173.892 94.3835 172.785 94.9043C171.678 95.4251 170.751 95.6855 170.002 95.6855C168.993 95.6855 167.919 95.3275 166.779 94.6113C165.673 93.8952 164.631 93.0651 163.654 92.1211C162.678 91.1445 161.848 90.168 161.164 89.1914C160.48 88.2148 160.09 87.4824 159.992 86.9941C159.927 86.7988 159.895 86.571 159.895 86.3105C159.895 86.0176 159.895 85.7083 159.895 85.3828C159.895 83.7552 160.106 81.7044 160.529 79.2305C160.92 76.724 161.457 74.0872 162.141 71.3203C162.824 68.5208 163.605 65.7539 164.484 63.0195C165.396 60.2526 166.34 57.8112 167.316 55.6953C169.302 51.3659 171.337 47.5247 173.42 44.1719C175.536 40.819 177.603 37.9056 179.621 35.4316C181.639 32.9251 183.576 30.8255 185.432 29.1328C187.287 27.4401 188.947 26.0729 190.412 25.0312C191.91 23.9896 193.163 23.2409 194.172 22.7852C195.214 22.3294 195.93 22.1016 196.32 22.1016C196.939 22.3294 197.557 22.6712 198.176 23.127C198.827 23.5501 199.429 24.0059 199.982 24.4941C200.536 24.9824 201.024 25.4707 201.447 25.959C201.87 26.4147 202.18 26.7565 202.375 26.9844C202.635 27.2448 202.798 27.5052 202.863 27.7656C202.961 27.9935 203.01 28.3027 203.01 28.6934C203.01 29.4746 202.814 30.5488 202.424 31.916C202.033 33.2832 201.301 35.0247 200.227 37.1406C199.152 39.224 197.655 41.7305 195.734 44.6602C193.846 47.5898 191.372 51.0078 188.312 54.9141C186.88 56.737 185.367 58.5924 183.771 60.4805C182.404 62.1081 180.826 63.8822 179.035 65.8027C177.245 67.7233 175.406 69.5625 173.518 71.3203C172.574 74.901 171.906 78.0586 171.516 80.793C171.158 83.5273 170.979 85.6595 170.979 87.1895C170.979 88.1986 171.06 88.8496 171.223 89.1426C171.385 89.4355 171.613 89.582 171.906 89.582ZM179.719 53.791C179.165 55.028 178.645 56.2324 178.156 57.4043C177.701 58.5762 177.261 59.7318 176.838 60.8711C177.847 59.7318 178.758 58.6413 179.572 57.5996C180.419 56.5579 181.135 55.6628 181.721 54.9141C182.404 54.0352 183.023 53.2051 183.576 52.4238C185.855 49.2337 187.824 46.304 189.484 43.6348C191.145 40.9655 192.512 38.6217 193.586 36.6035C194.66 34.5527 195.441 32.86 195.93 31.5254C196.451 30.1582 196.711 29.1816 196.711 28.5957C196.711 28.4329 196.695 28.319 196.662 28.2539C196.662 28.1562 196.581 28.1074 196.418 28.1074C196.125 28.1074 195.458 28.5957 194.416 29.5723C193.374 30.5163 192.089 32.0299 190.559 34.1133C189.061 36.1966 187.368 38.8659 185.48 42.1211C183.625 45.3438 181.704 49.2337 179.719 53.791ZM222.053 80.9883C219.058 83.918 216.226 86.3757 213.557 88.3613C210.92 90.347 208.397 91.9421 205.988 93.1465C203.579 94.3509 201.268 95.2135 199.055 95.7344C196.874 96.2552 194.742 96.5156 192.658 96.5156C191.779 96.5156 190.803 96.1901 189.729 95.5391C188.654 94.888 187.661 94.0905 186.75 93.1465C185.806 92.235 185.025 91.2747 184.406 90.2656C183.788 89.2565 183.479 88.3939 183.479 87.6777C183.479 85.0085 183.853 82.5671 184.602 80.3535C185.318 78.1074 186.278 76.0892 187.482 74.2988C188.687 72.5085 190.054 70.9297 191.584 69.5625C193.146 68.1953 194.758 67.056 196.418 66.1445C198.111 65.2331 199.787 64.5495 201.447 64.0938C203.107 63.638 204.637 63.4102 206.037 63.4102C207.046 63.4102 208.039 63.7031 209.016 64.2891C210.025 64.875 210.936 65.5911 211.75 66.4375C212.564 67.2839 213.215 68.179 213.703 69.123C214.224 70.0345 214.484 70.832 214.484 71.5156C214.484 72.6224 214.012 73.7617 213.068 74.9336C212.157 76.0729 210.855 77.2448 209.162 78.4492C207.469 79.6536 205.435 80.8906 203.059 82.1602C200.682 83.3971 198.062 84.6504 195.197 85.9199C195.1 86.7012 195.051 87.4661 195.051 88.2148C195.051 89.224 195.262 89.9076 195.686 90.2656C196.141 90.6237 196.971 90.8027 198.176 90.8027C200.324 90.8027 202.342 90.4447 204.23 89.7285C206.151 89.0124 207.99 88.0846 209.748 86.9453C211.506 85.806 213.199 84.5039 214.826 83.0391C216.454 81.5742 218.065 80.0931 219.66 78.5957L222.053 80.9883ZM204.865 68.7812C204.214 68.7812 203.498 69.1393 202.717 69.8555C201.936 70.5391 201.154 71.4505 200.373 72.5898C199.592 73.7292 198.843 75.0475 198.127 76.5449C197.411 78.0098 196.792 79.5397 196.271 81.1348C197.476 80.3535 198.648 79.5234 199.787 78.6445C200.959 77.7656 202.001 76.8542 202.912 75.9102C203.824 74.9336 204.556 73.9408 205.109 72.9316C205.663 71.9225 205.939 70.9134 205.939 69.9043C205.939 69.6113 205.842 69.3509 205.646 69.123C205.484 68.8952 205.223 68.7812 204.865 68.7812ZM253.596 80.9883C250.601 83.918 247.769 86.3757 245.1 88.3613C242.463 90.347 239.94 91.9421 237.531 93.1465C235.122 94.3509 232.811 95.2135 230.598 95.7344C228.417 96.2552 226.285 96.5156 224.201 96.5156C223.322 96.5156 222.346 96.1901 221.271 95.5391C220.197 94.888 219.204 94.0905 218.293 93.1465C217.349 92.235 216.568 91.2747 215.949 90.2656C215.331 89.2565 215.021 88.3939 215.021 87.6777C215.021 85.0085 215.396 82.5671 216.145 80.3535C216.861 78.1074 217.821 76.0892 219.025 74.2988C220.23 72.5085 221.597 70.9297 223.127 69.5625C224.689 68.1953 226.301 67.056 227.961 66.1445C229.654 65.2331 231.33 64.5495 232.99 64.0938C234.65 63.638 236.18 63.4102 237.58 63.4102C238.589 63.4102 239.582 63.7031 240.559 64.2891C241.568 64.875 242.479 65.5911 243.293 66.4375C244.107 67.2839 244.758 68.179 245.246 69.123C245.767 70.0345 246.027 70.832 246.027 71.5156C246.027 72.6224 245.555 73.7617 244.611 74.9336C243.7 76.0729 242.398 77.2448 240.705 78.4492C239.012 79.6536 236.978 80.8906 234.602 82.1602C232.225 83.3971 229.605 84.6504 226.74 85.9199C226.643 86.7012 226.594 87.4661 226.594 88.2148C226.594 89.224 226.805 89.9076 227.229 90.2656C227.684 90.6237 228.514 90.8027 229.719 90.8027C231.867 90.8027 233.885 90.4447 235.773 89.7285C237.694 89.0124 239.533 88.0846 241.291 86.9453C243.049 85.806 244.742 84.5039 246.369 83.0391C247.997 81.5742 249.608 80.0931 251.203 78.5957L253.596 80.9883ZM236.408 68.7812C235.757 68.7812 235.041 69.1393 234.26 69.8555C233.479 70.5391 232.697 71.4505 231.916 72.5898C231.135 73.7292 230.386 75.0475 229.67 76.5449C228.954 78.0098 228.335 79.5397 227.814 81.1348C229.019 80.3535 230.191 79.5234 231.33 78.6445C232.502 77.7656 233.544 76.8542 234.455 75.9102C235.367 74.9336 236.099 73.9408 236.652 72.9316C237.206 71.9225 237.482 70.9134 237.482 69.9043C237.482 69.6113 237.385 69.3509 237.189 69.123C237.027 68.8952 236.766 68.7812 236.408 68.7812ZM265.07 69.416C264.68 70.4577 264.289 71.5156 263.898 72.5898C263.508 73.6641 263.117 74.7708 262.727 75.9102C264.777 73.5664 266.535 71.6621 268 70.1973C269.497 68.6999 270.751 67.528 271.76 66.6816C272.801 65.8353 273.632 65.2656 274.25 64.9727C274.901 64.6471 275.406 64.4844 275.764 64.4844C276.187 64.4844 276.822 64.696 277.668 65.1191C278.514 65.5423 279.361 66.0632 280.207 66.6816C281.086 67.3001 281.835 67.9349 282.453 68.5859C283.104 69.237 283.43 69.8066 283.43 70.2949C283.43 70.3926 283.413 70.5228 283.381 70.6855C283.348 70.8158 283.299 70.9948 283.234 71.2227C282.974 72.0365 282.632 72.9967 282.209 74.1035C281.818 75.2103 281.395 76.3659 280.939 77.5703C280.484 78.7422 280.028 79.9303 279.572 81.1348C279.117 82.3066 278.71 83.4134 278.352 84.4551C277.993 85.4967 277.701 86.4082 277.473 87.1895C277.245 87.9707 277.131 88.5404 277.131 88.8984C277.131 89.0938 277.229 89.1914 277.424 89.1914C277.782 89.1914 278.319 88.9798 279.035 88.5566C279.751 88.1335 280.565 87.5801 281.477 86.8965C282.421 86.2129 283.397 85.4642 284.406 84.6504C285.415 83.8366 286.376 83.0391 287.287 82.2578C288.231 81.444 289.077 80.7116 289.826 80.0605C290.575 79.4095 291.145 78.9212 291.535 78.5957C291.861 78.8887 292.219 79.263 292.609 79.7188C293 80.1745 293.374 80.5977 293.732 80.9883C293.016 81.7044 292.121 82.5833 291.047 83.625C289.973 84.6341 288.801 85.6758 287.531 86.75C286.294 87.8242 284.992 88.8984 283.625 89.9727C282.29 91.0469 280.988 92.0072 279.719 92.8535C278.449 93.6999 277.261 94.3835 276.154 94.9043C275.048 95.4251 274.12 95.6855 273.371 95.6855C272.883 95.6855 272.264 95.5065 271.516 95.1484C270.767 94.8229 270.035 94.3997 269.318 93.8789C268.635 93.3906 268.049 92.8372 267.561 92.2188C267.072 91.6003 266.828 90.998 266.828 90.4121C267.121 89.0775 267.512 87.5638 268 85.8711C268.521 84.1784 269.074 82.4531 269.66 80.6953C270.246 78.9049 270.848 77.1471 271.467 75.4219C272.118 73.6641 272.736 72.0527 273.322 70.5879L273.225 70.6855C272.606 71.4342 271.711 72.4271 270.539 73.6641C269.4 74.8685 268.098 76.431 266.633 78.3516C265.168 80.2396 263.622 82.5345 261.994 85.2363C260.367 87.9056 258.771 91.0794 257.209 94.7578C257.014 95.2135 256.835 95.5716 256.672 95.832C256.509 96.0924 256.2 96.2227 255.744 96.2227C255.191 96.2227 254.556 96.0599 253.84 95.7344C253.156 95.4414 252.456 95.0345 251.74 94.5137C250.992 94.0254 250.259 93.472 249.543 92.8535C248.794 92.235 248.127 91.6165 247.541 90.998C247.541 90.8027 247.639 90.2493 247.834 89.3379C247.997 88.4264 248.241 87.2871 248.566 85.9199C248.892 84.5202 249.299 82.9414 249.787 81.1836C250.275 79.3932 250.829 77.5215 251.447 75.5684C252.066 73.6152 252.749 71.6296 253.498 69.6113C254.214 67.5605 254.995 65.5911 255.842 63.7031C257.209 64.3542 258.723 65.1517 260.383 66.0957C262.076 67.0397 263.638 68.1465 265.07 69.416ZM318.977 88.7031C318.977 88.8984 319.074 88.9961 319.27 88.9961C319.562 88.9961 320.051 88.7845 320.734 88.3613C321.418 87.9382 322.199 87.401 323.078 86.75C323.957 86.099 324.885 85.3665 325.861 84.5527C326.87 83.7389 327.831 82.9414 328.742 82.1602C329.654 81.3789 330.467 80.6628 331.184 80.0117C331.932 79.3607 332.502 78.8561 332.893 78.498C333.186 78.791 333.544 79.1816 333.967 79.6699C334.423 80.1582 334.829 80.5977 335.188 80.9883C334.406 81.7044 333.462 82.5833 332.355 83.625C331.281 84.6341 330.109 85.6921 328.84 86.7988C327.603 87.9056 326.317 89.0124 324.982 90.1191C323.648 91.1934 322.346 92.1536 321.076 93C319.807 93.8464 318.602 94.5299 317.463 95.0508C316.324 95.6042 315.331 95.8809 314.484 95.8809C313.898 95.8809 313.247 95.7669 312.531 95.5391C311.848 95.3112 311.213 94.9857 310.627 94.5625C310.041 94.1719 309.553 93.6999 309.162 93.1465C308.771 92.5931 308.576 91.9746 308.576 91.291C308.576 91.0306 308.56 90.7214 308.527 90.3633C308.527 89.9727 308.56 89.4844 308.625 88.8984C308.69 88.2799 308.82 87.5475 309.016 86.7012C309.211 85.8223 309.504 84.748 309.895 83.4785C308.82 84.6178 307.551 85.806 306.086 87.043C304.654 88.2799 303.14 89.4518 301.545 90.5586C299.95 91.6654 298.339 92.6582 296.711 93.5371C295.116 94.4486 293.635 95.1322 292.268 95.5879C292.105 95.653 291.975 95.6855 291.877 95.6855C291.779 95.6855 291.682 95.6855 291.584 95.6855C291.258 95.6855 290.835 95.5228 290.314 95.1973C289.761 94.8717 289.224 94.4323 288.703 93.8789C288.182 93.3581 287.743 92.7559 287.385 92.0723C286.994 91.3887 286.799 90.7051 286.799 90.0215C286.799 89.8262 286.896 89.1751 287.092 88.0684C287.287 86.9616 287.759 85.5618 288.508 83.8691C289.224 82.1439 290.298 80.2233 291.73 78.1074C293.163 75.959 295.116 73.7617 297.59 71.5156C298.859 70.3763 300.227 69.3021 301.691 68.293C302.928 67.4466 304.344 66.584 305.939 65.7051C307.535 64.8262 309.211 64.1263 310.969 63.6055C311.034 63.6055 311.083 63.5892 311.115 63.5566C311.18 63.5241 311.262 63.5404 311.359 63.6055C311.75 63.7357 312.206 63.9473 312.727 64.2402C313.28 64.5007 313.817 64.7936 314.338 65.1191C314.891 65.4121 315.363 65.7214 315.754 66.0469C316.177 66.3398 316.454 66.584 316.584 66.7793C316.617 66.8444 316.617 66.8932 316.584 66.9258L316.486 67.0234C315.021 67.8047 313.638 68.6836 312.336 69.6602C311.034 70.6042 309.878 71.4993 308.869 72.3457C307.697 73.3548 306.607 74.3477 305.598 75.3242C303.221 77.668 301.577 79.7025 300.666 81.4277C299.755 83.1204 299.299 84.3411 299.299 85.0898C299.299 85.6432 299.527 85.9199 299.982 85.9199C300.438 85.9199 301.008 85.7409 301.691 85.3828C302.408 84.9922 303.205 84.4876 304.084 83.8691C304.963 83.2181 305.923 82.4694 306.965 81.623C308.039 80.7441 309.146 79.8327 310.285 78.8887C311.294 78.0749 312.271 77.196 313.215 76.252C314.029 75.4707 314.875 74.5755 315.754 73.5664C316.633 72.5573 317.382 71.5319 318 70.4902C318 70.4577 318.016 70.4251 318.049 70.3926C318.081 70.36 318.13 70.36 318.195 70.3926C318.553 70.653 318.96 71.0924 319.416 71.7109C319.872 72.2969 320.295 72.9479 320.686 73.6641C321.076 74.3802 321.402 75.0801 321.662 75.7637C321.955 76.4147 322.102 76.9193 322.102 77.2773C321.353 78.8073 320.767 80.207 320.344 81.4766C319.953 82.7135 319.644 83.804 319.416 84.748C319.221 85.6921 319.09 86.5059 319.025 87.1895C318.993 87.8405 318.977 88.3451 318.977 88.7031ZM360.578 107.502C360.448 108.088 360.253 108.771 359.992 109.553C359.764 110.334 359.504 111.099 359.211 111.848C358.951 112.629 358.674 113.345 358.381 113.996C358.12 114.647 357.893 115.119 357.697 115.412C357.307 115.412 356.2 115.412 354.377 115.412C352.587 115.445 350.422 115.461 347.883 115.461C345.376 115.493 342.691 115.526 339.826 115.559C336.994 115.591 334.357 115.607 331.916 115.607C329.442 115.607 327.375 115.591 325.715 115.559C324.022 115.526 323.078 115.477 322.883 115.412C322.98 115.021 323.143 114.468 323.371 113.752C323.599 113.068 323.843 112.352 324.104 111.604C324.364 110.855 324.641 110.155 324.934 109.504C325.194 108.853 325.406 108.381 325.568 108.088C325.764 108.023 326.398 107.958 327.473 107.893C328.514 107.827 329.849 107.779 331.477 107.746C333.104 107.714 334.927 107.681 336.945 107.648C338.964 107.616 341.014 107.583 343.098 107.551C345.214 107.551 347.281 107.535 349.299 107.502C351.317 107.502 353.124 107.502 354.719 107.502C356.346 107.502 357.681 107.502 358.723 107.502C359.797 107.502 360.415 107.502 360.578 107.502ZM460.09 72.7852C459.667 74.0547 459.13 75.5033 458.479 77.1309C457.86 78.7585 457.258 80.3535 456.672 81.916C456.086 83.4785 455.581 84.8945 455.158 86.1641C454.768 87.4336 454.572 88.3451 454.572 88.8984C454.572 89.0938 454.67 89.1914 454.865 89.1914C455.223 89.1914 455.76 88.9798 456.477 88.5566C457.193 88.1335 458.007 87.5801 458.918 86.8965C459.862 86.2129 460.839 85.4642 461.848 84.6504C462.857 83.8366 463.817 83.0391 464.729 82.2578C465.673 81.444 466.519 80.7116 467.268 80.0605C468.016 79.4095 468.586 78.9212 468.977 78.5957C469.27 78.8887 469.611 79.263 470.002 79.7188C470.425 80.1745 470.816 80.5977 471.174 80.9883C470.458 81.7044 469.562 82.5833 468.488 83.625C467.414 84.6341 466.242 85.6758 464.973 86.75C463.736 87.8242 462.434 88.8984 461.066 89.9727C459.732 91.0469 458.413 92.0072 457.111 92.8535C455.842 93.6999 454.654 94.3835 453.547 94.9043C452.44 95.4251 451.512 95.6855 450.764 95.6855C450.275 95.6855 449.657 95.5065 448.908 95.1484C448.16 94.8229 447.443 94.3997 446.76 93.8789C446.076 93.3906 445.49 92.8372 445.002 92.2188C444.514 91.6003 444.27 90.998 444.27 90.4121C444.758 88.2311 445.246 86.3268 445.734 84.6992C446.223 83.0716 446.678 81.6882 447.102 80.5488C447.525 79.377 447.899 78.4329 448.225 77.7168C448.55 77.0007 448.794 76.4635 448.957 76.1055C448.566 75.9427 448.192 75.7637 447.834 75.5684C447.476 75.373 447.118 75.1777 446.76 74.9824C446.239 75.5358 445.653 76.1217 445.002 76.7402C444.383 77.3587 443.749 77.9772 443.098 78.5957C442.447 79.2142 441.796 79.8164 441.145 80.4023C440.493 80.9883 439.908 81.5254 439.387 82.0137L437.043 79.6211C437.889 78.8073 438.915 77.8307 440.119 76.6914C441.291 75.5195 442.447 74.3477 443.586 73.1758C442.772 72.6875 442.04 72.2318 441.389 71.8086C440.738 71.3529 440.184 70.946 439.729 70.5879C439.175 70.1973 438.687 69.8392 438.264 69.5137C438.068 69.416 437.971 69.2044 437.971 68.8789C437.971 68.5208 438.117 68.0163 438.41 67.3652C438.671 66.6816 439.012 65.9655 439.436 65.2168C439.859 64.4355 440.314 63.6543 440.803 62.873C441.291 62.0592 441.763 61.3268 442.219 60.6758C442.674 60.0247 443.065 59.5039 443.391 59.1133C443.749 58.6901 443.977 58.4785 444.074 58.4785C444.139 58.4785 444.351 58.5599 444.709 58.7227C445.1 58.8854 445.507 59.0807 445.93 59.3086C446.353 59.5039 446.743 59.7318 447.102 59.9922C447.46 60.2526 447.688 60.4805 447.785 60.6758C447.818 60.8385 447.85 61.1803 447.883 61.7012C447.915 62.222 447.948 62.8568 447.98 63.6055C449.25 64.2565 450.552 65.0052 451.887 65.8516C453.221 66.6654 454.442 67.4466 455.549 68.1953C456.851 69.0417 458.088 69.9043 459.26 70.7832C459.683 71.0436 459.943 71.3691 460.041 71.7598C460.171 72.1504 460.188 72.4922 460.09 72.7852ZM472.102 95.6855C471.613 95.6855 470.995 95.5065 470.246 95.1484C469.497 94.8229 468.781 94.3997 468.098 93.8789C467.414 93.3906 466.828 92.8372 466.34 92.2188C465.852 91.6003 465.607 90.998 465.607 90.4121C465.933 88.9798 466.372 87.3359 466.926 85.4805C467.479 83.625 468.081 81.737 468.732 79.8164C469.351 77.8958 470.018 76.0241 470.734 74.2012C471.418 72.3457 472.036 70.7018 472.59 69.2695C473.176 67.8372 473.68 66.6816 474.104 65.8027C474.527 64.9238 474.803 64.4844 474.934 64.4844C475.129 64.4844 475.617 64.696 476.398 65.1191C477.18 65.5423 477.993 66.0632 478.84 66.6816C479.719 67.2676 480.5 67.9023 481.184 68.5859C481.867 69.237 482.209 69.8066 482.209 70.2949C482.209 70.3926 482.193 70.5228 482.16 70.6855C482.128 70.8158 482.079 70.9948 482.014 71.2227C481.753 72.0365 481.411 72.9967 480.988 74.1035C480.598 75.2103 480.174 76.3659 479.719 77.5703C479.263 78.7422 478.807 79.9303 478.352 81.1348C477.896 82.3066 477.489 83.4134 477.131 84.4551C476.773 85.4967 476.48 86.4082 476.252 87.1895C476.024 87.9707 475.91 88.5404 475.91 88.8984C475.91 89.0938 476.008 89.1914 476.203 89.1914C476.561 89.1914 477.098 88.9798 477.814 88.5566C478.531 88.1335 479.344 87.5801 480.256 86.8965C481.2 86.2129 482.176 85.4642 483.186 84.6504C484.195 83.8366 485.155 83.0391 486.066 82.2578C487.01 81.444 487.857 80.7116 488.605 80.0605C489.354 79.4095 489.924 78.9212 490.314 78.5957C490.607 78.8887 490.949 79.263 491.34 79.7188C491.763 80.1745 492.154 80.5977 492.512 80.9883C491.796 81.7044 490.9 82.5833 489.826 83.625C488.752 84.6341 487.58 85.6758 486.311 86.75C485.074 87.8242 483.771 88.8984 482.404 89.9727C481.07 91.0469 479.768 92.0072 478.498 92.8535C477.229 93.6999 476.04 94.3835 474.934 94.9043C473.827 95.4251 472.883 95.6855 472.102 95.6855ZM491.438 49.5918C491.405 49.722 491.275 50.0475 491.047 50.5684C490.852 51.0566 490.607 51.6426 490.314 52.3262C490.021 52.9772 489.68 53.6771 489.289 54.4258C488.931 55.1419 488.573 55.8092 488.215 56.4277C487.857 57.0462 487.515 57.5671 487.189 57.9902C486.864 58.3809 486.604 58.5762 486.408 58.5762C485.822 58.5436 485.106 58.3646 484.26 58.0391C483.446 57.7135 482.648 57.3555 481.867 56.9648C481.118 56.5417 480.467 56.1348 479.914 55.7441C479.393 55.3535 479.133 55.0768 479.133 54.9141C479.133 54.2305 479.328 53.3516 479.719 52.2773C480.109 51.1706 480.565 50.1126 481.086 49.1035C481.607 48.0618 482.128 47.1667 482.648 46.418C483.202 45.6693 483.625 45.2949 483.918 45.2949C484.504 45.2949 485.22 45.4902 486.066 45.8809C486.913 46.2389 487.727 46.6621 488.508 47.1504C489.322 47.6387 490.005 48.127 490.559 48.6152C491.145 49.071 491.438 49.3965 491.438 49.5918ZM500.568 74.9824C502.326 72.8014 503.938 71.0111 505.402 69.6113C506.867 68.179 508.153 67.056 509.26 66.2422C510.399 65.3958 511.359 64.8099 512.141 64.4844C512.922 64.1589 513.508 63.9961 513.898 63.9961C514.419 63.9961 514.989 64.1914 515.607 64.582C516.226 64.9727 516.828 65.4447 517.414 65.998C518.033 66.5514 518.602 67.1211 519.123 67.707C519.644 68.293 520.083 68.765 520.441 69.123C520.799 69.4811 521.011 69.8717 521.076 70.2949C521.174 70.6855 521.223 71.0924 521.223 71.5156C521.223 73.0456 520.962 74.722 520.441 76.5449C519.921 78.3353 519.237 80.1257 518.391 81.916C517.544 83.6738 516.584 85.3503 515.51 86.9453C514.436 88.5404 513.345 89.8913 512.238 90.998C513.182 90.6074 514.143 90.1354 515.119 89.582C516.128 88.9961 517.121 88.3776 518.098 87.7266C519.074 87.0755 520.035 86.4082 520.979 85.7246C521.923 85.0085 522.818 84.3086 523.664 83.625C525.65 82.0625 527.57 80.3861 529.426 78.5957L531.623 80.9883C530.549 81.9974 529.344 83.0716 528.01 84.2109C526.708 85.3503 525.34 86.4733 523.908 87.5801C522.476 88.6868 521.011 89.7448 519.514 90.7539C518.049 91.763 516.633 92.6582 515.266 93.4395C513.898 94.2207 512.629 94.8392 511.457 95.2949C510.285 95.7507 509.276 95.9785 508.43 95.9785C507.844 95.9785 507.111 95.7995 506.232 95.4414C505.354 95.1159 504.491 94.709 503.645 94.2207C502.831 93.7324 502.115 93.2116 501.496 92.6582C500.91 92.0723 500.617 91.5514 500.617 91.0957C500.617 90.8353 500.78 90.6074 501.105 90.4121C501.464 90.1842 501.968 89.7936 502.619 89.2402C503.27 88.6868 504.051 87.8568 504.963 86.75C505.874 85.6432 506.9 84.0319 508.039 81.916C508.658 80.7441 509.243 79.5397 509.797 78.3027C510.35 77.0332 510.839 75.8613 511.262 74.7871C511.685 73.6803 512.01 72.7363 512.238 71.9551C512.499 71.1413 512.629 70.5879 512.629 70.2949C512.629 70.002 512.58 69.8066 512.482 69.709C512.417 69.5788 512.352 69.4811 512.287 69.416C512.157 69.3835 512.043 69.3835 511.945 69.416C511.49 69.5462 510.562 70.2786 509.162 71.6133C507.795 72.9154 506.184 74.8034 504.328 77.2773C502.473 79.7188 500.503 82.7135 498.42 86.2617C496.337 89.7773 494.367 93.7975 492.512 98.3223C490.982 102.684 489.452 107.095 487.922 111.555C486.392 116.014 484.895 120.458 483.43 124.885L471.027 127.814C472.915 122.443 474.885 117.105 476.936 111.799C478.954 106.525 480.972 101.236 482.99 95.9297C484.976 90.6562 486.945 85.3665 488.898 80.0605C490.819 74.7546 492.658 69.4323 494.416 64.0938C494.514 63.7357 494.595 63.4915 494.66 63.3613C494.758 63.1986 494.937 63.1172 495.197 63.1172C495.718 63.2799 496.353 63.5892 497.102 64.0449C497.85 64.4681 498.583 64.9727 499.299 65.5586C500.048 66.112 500.715 66.6816 501.301 67.2676C501.887 67.8535 502.294 68.3581 502.521 68.7812C502.587 68.8789 502.57 69.0579 502.473 69.3184C502.408 69.5462 502.326 69.8066 502.229 70.0996L500.568 74.9824Z" fill="white"/>
<path d="M392.341 104.813L414.016 75.2405L429.189 101.429L434.916 91.1576L426.663 55.8032L436.431 37.0811C436.431 37.0811 442.242 26.5934 438.518 24.0421L438.442 23.9936C434.547 21.7111 427.533 31.4355 427.533 31.4355L414.754 48.2469L379.251 55.8385L372.397 65.394L402.554 67.9689L385.029 100.175L373.171 102.579L370.371 106.987L392.42 120.978L395.216 116.567L392.341 104.813Z" fill="white"/>
</svg>
