<svg version="1.1" xmlns="http://www.w3.org/2000/svg" xmlns:xlink="http://www.w3.org/1999/xlink" width="800px" height="800px" viewBox="0,0,256,256"><g fill="#fa5252" fill-rule="nonzero" stroke="none" stroke-width="1" stroke-linecap="butt" stroke-linejoin="miter" stroke-miterlimit="10" stroke-dasharray="" stroke-dashoffset="0" font-family="none" font-weight="none" font-size="none" text-anchor="none" style="mix-blend-mode: normal"><g transform="scale(10.66667,10.66667)"><path d="M8,11.25c-0.41421,0 -0.75,0.3358 -0.75,0.75c0,0.4142 0.33579,0.75 0.75,0.75zM16,12.75c0.4142,0 0.75,-0.3358 0.75,-0.75c0,-0.4142 -0.3358,-0.75 -0.75,-0.75zM8,12.75h8v-1.5h-8zM8,4.75h8v-1.5h-8zM19.25,8v8h1.5v-8zM16,19.25h-8v1.5h8zM4.75,16v-8h-1.5v8zM8,19.25c-1.79493,0 -3.25,-1.4551 -3.25,-3.25h-1.5c0,2.6234 2.12665,4.75 4.75,4.75zM19.25,16c0,1.7949 -1.4551,3.25 -3.25,3.25v1.5c2.6234,0 4.75,-2.1266 4.75,-4.75zM16,4.75c1.7949,0 3.25,1.45507 3.25,3.25h1.5c0,-2.62335 -2.1266,-4.75 -4.75,-4.75zM8,3.25c-2.62335,0 -4.75,2.12665 -4.75,4.75h1.5c0,-1.79493 1.45507,-3.25 3.25,-3.25z"></path></g></g></svg>