<svg version="1.1" xmlns="http://www.w3.org/2000/svg" xmlns:xlink="http://www.w3.org/1999/xlink" width="800px" height="800px" viewBox="0,0,256,256"><g fill="none" fill-rule="nonzero" stroke="none" stroke-width="1" stroke-linecap="butt" stroke-linejoin="miter" stroke-miterlimit="10" stroke-dasharray="" stroke-dashoffset="0" font-family="none" font-weight="none" font-size="none" text-anchor="none" style="mix-blend-mode: normal"><g transform="translate(0,0) scale(0.5,0.5)"><path d="M512,256.006c0,141.396 -114.606,255.998 -255.996,255.994c-141.398,0.004 -256.004,-114.598 -256.004,-255.994c-0.007,-141.396 114.606,-256.006 256.004,-256.006c141.39,0 255.996,114.614 255.996,256.006z" fill="#ff6c89"></path><path d="M492.701,353.583c-0.07,-0.06 -0.141,-0.122 -0.21,-0.187c-0.244,-0.237 -0.447,-0.508 -0.692,-0.742c-0.145,-0.139 -110.085,-110.097 -110.332,-110.332c-13.972,-13.353 -29.662,-22.53 -44.953,-28.909c-0.081,-0.093 -0.191,-0.156 -0.278,-0.245c-0.279,-0.468 -66.727,-66.716 -67.108,-67.109c-0.708,-1.185 -1.715,-2.182 -3.015,-2.795c-2.481,-1.17 -5.409,-0.803 -7.532,0.942c0,0 -22.361,18.414 -22.38,18.399c-0.085,-0.117 -0.106,-0.26 -0.199,-0.374c-0.268,-0.325 -0.63,-0.499 -0.94,-0.765c-0.085,-0.117 -0.105,-0.26 -0.198,-0.373c-0.268,-0.325 -15.83,-15.81 -15.924,-15.924c-2.489,-3.025 -6.957,-3.454 -9.979,-0.962l-120.502,99.236c-1.633,1.343 -2.582,3.35 -2.582,5.468c0,2.118 0.948,4.126 2.582,5.469l246.331,245.215c9.878,-3.193 19.486,-6.975 28.786,-11.313l5.748,-2.716c55.515,-27.455 99.627,-74.429 123.377,-131.983z" fill="#ff597a"></path><g fill="#f4f6f9"><path d="M381.467,242.322c-39.198,-37.457 -91.956,-42.503 -111.291,-43.029v-49.619c0,-2.741 -1.582,-5.241 -4.063,-6.41c-2.482,-1.17 -5.41,-0.803 -7.532,0.942l-120.503,99.238c-1.634,1.343 -2.582,3.35 -2.582,5.469c0,2.119 0.948,4.126 2.582,5.469l120.503,99.238c2.122,1.751 5.053,2.118 7.532,0.942c2.482,-1.17 4.063,-3.669 4.063,-6.41v-51.47c19.763,-5.358 95.625,-19.099 142.604,68.981c1.253,2.347 3.683,3.751 6.254,3.751c0.567,0 1.146,-0.069 1.721,-0.214c3.153,-0.789 5.369,-3.62 5.369,-6.874c-0.001,-51.314 -15.025,-91.685 -44.657,-120.004zM301.324,278.921c-23.584,0 -40.205,5.697 -40.62,5.85c-2.821,1.004 -4.704,3.676 -4.704,6.673v41.686l-102.263,-84.217l102.263,-84.219v41.686c0,1.932 0.793,3.779 2.191,5.122c1.398,1.329 3.264,2.091 5.213,1.959c0.606,0 65.008,-2.313 108.358,39.195c21.314,20.414 34.23,48.09 38.554,82.5c-34.224,-46.219 -77.73,-56.235 -108.992,-56.235z"></path><path d="M104.117,248.912l113.858,-93.77c3.022,-2.485 3.454,-6.95 0.965,-9.975c-2.489,-3.025 -6.957,-3.454 -9.979,-0.962l-120.502,99.238c-1.634,1.343 -2.582,3.35 -2.582,5.469c0,2.119 0.948,4.126 2.582,5.469l120.503,99.238c1.318,1.093 2.917,1.62 4.503,1.62c2.046,0 4.074,-0.879 5.475,-2.582c2.489,-3.025 2.055,-7.49 -0.965,-9.975z"></path></g></g></g></svg>