<svg version="1.1" xmlns="http://www.w3.org/2000/svg" xmlns:xlink="http://www.w3.org/1999/xlink" width="800px" height="800px" viewBox="0,0,256,256"><g fill="#ff597a" fill-rule="nonzero" stroke="none" stroke-width="1" stroke-linecap="butt" stroke-linejoin="miter" stroke-miterlimit="10" stroke-dasharray="" stroke-dashoffset="0" font-family="none" font-weight="none" font-size="none" text-anchor="none" style="mix-blend-mode: normal"><g transform="translate(0.00014,0.00051) scale(0.50834,0.50834)"><g><g><g><path d="M411.269,125.899c-57.797,0 -92.328,50.671 -92.328,99.664c0,30.51 7.798,47.322 20.707,75.172c25.541,55.103 64.185,115.024 64.571,115.62c1.553,2.401 4.205,3.836 7.05,3.836c2.845,0 5.498,-1.435 7.05,-3.836c0.386,-0.596 39.029,-60.517 64.571,-115.62c12.909,-27.849 20.707,-44.661 20.707,-75.172c0,-48.993 -34.53,-99.664 -92.328,-99.664zM411.269,268.587c-27.774,0 -50.361,-22.587 -50.361,-50.361c0,-27.774 22.587,-50.361 50.361,-50.361c27.774,0 50.361,22.587 50.361,50.361c0,27.774 -22.587,50.361 -50.361,50.361z"></path><path d="M411.269,184.653c-18.516,0 -33.574,15.058 -33.574,33.574c0,18.516 15.058,33.574 33.574,33.574c18.516,0 33.574,-15.058 33.574,-33.574c0,-18.516 -15.058,-33.574 -33.574,-33.574z"></path><path d="M411.269,436.456h-8.393c-4.642,0 -8.393,3.752 -8.393,8.393c0,4.642 3.752,8.393 8.393,8.393h8.393c4.642,0 8.393,-3.752 8.393,-8.393c0.001,-4.641 -3.751,-8.393 -8.393,-8.393z"></path><path d="M323.393,436.456h-15.897c-4.633,0 -8.393,3.752 -8.393,8.393c0,4.642 3.76,8.393 8.393,8.393h15.897c4.642,0 8.393,-3.752 8.393,-8.393c0,-4.641 -3.752,-8.393 -8.393,-8.393z"></path><path d="M371.081,436.456h-15.897c-4.633,0 -8.393,3.752 -8.393,8.393c0,4.642 3.76,8.393 8.393,8.393h15.897c4.642,0 8.393,-3.752 8.393,-8.393c0,-4.641 -3.752,-8.393 -8.393,-8.393z"></path><path d="M115.655,360.915c0,-4.642 -3.752,-8.393 -8.393,-8.393h-15.898c-4.633,0 -8.393,3.752 -8.393,8.393c0,4.641 3.76,8.393 8.393,8.393h15.897c4.642,0.001 8.394,-3.751 8.394,-8.393z"></path><path d="M84.958,436.456h-15.897c-4.633,0 -8.393,3.752 -8.393,8.393c0,4.642 3.76,8.393 8.393,8.393h15.897c4.642,0 8.393,-3.752 8.393,-8.393c0.001,-4.641 -3.751,-8.393 -8.393,-8.393z"></path><path d="M42.302,432.17c-3.718,-2.09 -6.967,-4.826 -9.652,-8.15c-2.912,-3.592 -8.192,-4.155 -11.81,-1.242c-3.601,2.913 -4.163,8.192 -1.242,11.801c4.02,4.986 8.897,9.099 14.487,12.229c1.309,0.73 2.711,1.074 4.104,1.074c2.929,0 5.783,-1.544 7.328,-4.289c2.266,-4.037 0.822,-9.149 -3.215,-11.423z"></path><path d="M67.556,360.923c0,-4.633 -4.163,-8.393 -8.796,-8.402h-0.084c-6.06,0 -11.986,1.074 -17.626,3.19c-4.348,1.628 -6.539,6.471 -4.91,10.811c1.267,3.366 4.465,5.439 7.856,5.439c0.99,0 1.989,-0.168 2.955,-0.529c3.76,-1.418 8.066,-1.905 11.776,-2.124h0.848c4.632,0.001 7.973,-3.751 7.981,-8.385z"></path><path d="M189.073,268.587c-4.642,0 -8.393,3.752 -8.393,8.393c0,4.642 3.752,8.393 8.393,8.393h12.414c0.906,0 1.855,0.034 2.77,0.109c0.235,0.025 0.47,0.034 0.713,0.034c4.314,0 7.982,-3.315 8.352,-7.688c0.394,-4.616 -3.038,-8.687 -7.655,-9.065c-1.41,-0.126 -2.837,-0.143 -4.23,-0.176z"></path><path d="M141.384,268.587c-4.642,0 -8.393,3.752 -8.393,8.393c0,4.642 3.752,8.393 8.393,8.393h15.906c4.633,0 8.393,-3.752 8.393,-8.393c0,-4.642 -3.76,-8.393 -8.393,-8.393z"></path><path d="M25.269,400.309c0.319,-4.264 1.435,-8.36 3.307,-12.179c2.04,-4.163 0.327,-9.191 -3.836,-11.23c-4.172,-2.073 -9.199,-0.327 -11.23,3.836c-2.82,5.75 -4.499,11.91 -4.977,18.315c-0.353,4.616 3.114,8.654 7.739,8.998c0.21,0.017 0.428,0.025 0.638,0.025c4.347,-0.001 8.032,-3.359 8.359,-7.765z"></path><path d="M180.335,436.456h-15.897c-4.633,0 -8.393,3.752 -8.393,8.393c0,4.642 3.76,8.393 8.393,8.393h15.897c4.642,0 8.393,-3.752 8.393,-8.393c0,-4.641 -3.752,-8.393 -8.393,-8.393z"></path><path d="M132.647,436.456h-15.897c-4.633,0 -8.393,3.752 -8.393,8.393c0,4.642 3.76,8.393 8.393,8.393h15.897c4.642,0 8.393,-3.752 8.393,-8.393c0,-4.641 -3.752,-8.393 -8.393,-8.393z"></path><path d="M243.318,327.833c-4.264,-1.813 -9.199,0.143 -11.029,4.39c-1.687,3.92 -4.071,7.437 -7.092,10.467c-3.282,3.273 -3.282,8.586 0,11.868c1.637,1.637 3.785,2.459 5.934,2.459c2.149,0 4.297,-0.823 5.934,-2.459c4.532,-4.532 8.116,-9.812 10.643,-15.696c1.83,-4.255 -0.134,-9.191 -4.39,-11.029z"></path><path d="M275.712,436.456h-15.897c-4.633,0 -8.393,3.752 -8.393,8.393c0,4.642 3.76,8.393 8.393,8.393h15.897c4.642,0 8.393,-3.752 8.393,-8.393c0,-4.641 -3.752,-8.393 -8.393,-8.393z"></path><path d="M163.343,360.915c0,-4.642 -3.752,-8.393 -8.393,-8.393h-15.897c-4.633,0 -8.393,3.752 -8.393,8.393c0,4.641 3.76,8.393 8.393,8.393h15.897c4.641,0.001 8.393,-3.751 8.393,-8.393z"></path><path d="M228.024,436.456h-15.897c-4.633,0 -8.393,3.752 -8.393,8.393c0,4.642 3.76,8.393 8.393,8.393h15.897c4.642,0 8.393,-3.752 8.393,-8.393c0,-4.641 -3.752,-8.393 -8.393,-8.393z"></path><path d="M238.999,285.382c-3.097,-3.466 -8.41,-3.743 -11.852,-0.671c-3.458,3.089 -3.752,8.393 -0.672,11.852c2.854,3.198 5.036,6.832 6.497,10.836c1.251,3.399 4.457,5.506 7.89,5.506c0.957,0 1.931,-0.159 2.879,-0.504c4.356,-1.603 6.597,-6.421 5.003,-10.769c-2.199,-6.001 -5.473,-11.474 -9.745,-16.25z"></path><path d="M211.032,360.726c-0.101,-4.574 -3.836,-8.217 -8.393,-8.217h-0.176l-15.721,0.008c-4.633,0 -8.393,3.76 -8.393,8.393c0,4.642 3.76,8.393 8.393,8.393h14.689l1.385,-0.008c4.624,-0.1 8.308,-3.927 8.216,-8.569z"></path><path d="M100.712,268.587c-4.642,0 -8.393,3.752 -8.393,8.393c0,4.642 3.752,8.393 8.393,8.393h8.393c4.642,0 8.393,-3.752 8.393,-8.393c0,-4.642 -3.752,-8.393 -8.393,-8.393z"></path><path d="M95.409,233.063c1.57,1.301 3.475,1.947 5.38,1.947c2.14,0 4.281,-0.814 5.917,-2.443c6.362,-6.32 62.498,-62.153 74.399,-75.046c19.892,-21.546 25.86,-51.2 15.201,-75.541c-8.67,-19.8 -27.111,-31.627 -49.32,-31.627c-21.068,0 -36.696,11.541 -46.298,24.811c-9.602,-13.27 -25.214,-24.811 -46.29,-24.811c-22.31,0 -40.792,12.162 -49.429,32.516c-10.374,24.433 -4.163,54.49 15.427,74.786c11.139,11.534 70.858,71.941 75.013,75.408z"></path></g></g></g></g></g></svg>