<svg version="1.1" xmlns="http://www.w3.org/2000/svg" xmlns:xlink="http://www.w3.org/1999/xlink" width="800px" height="800px" viewBox="0,0,256,256"><g fill="#20c997" fill-rule="nonzero" stroke="none" stroke-width="1" stroke-linecap="butt" stroke-linejoin="miter" stroke-miterlimit="10" stroke-dasharray="" stroke-dashoffset="0" font-family="none" font-weight="none" font-size="none" text-anchor="none" style="mix-blend-mode: normal"><g transform="scale(10.66667,10.66667)"><g id="update"><g><path d="M12,24c-4.1,0 -7.8,-2 -10,-5.4v5.4h-2v-9h9v2h-5.7c1.8,3.1 5,5 8.7,5c5.5,0 10,-4.5 10,-10h2c0,6.6 -5.4,12 -12,12zM2,12h-2c0,-6.6 5.4,-12 12,-12c4.1,0 7.8,2 10,5.4v-5.4h2v9h-9v-2h5.7c-1.8,-3.1 -5,-5 -8.7,-5c-5.5,0 -10,4.5 -10,10z"></path></g></g></g></g></svg>