<svg version="1.1" xmlns="http://www.w3.org/2000/svg" xmlns:xlink="http://www.w3.org/1999/xlink" width="800px" height="800px" viewBox="0,0,256,256"><g fill="#ff597a" fill-rule="nonzero" stroke="none" stroke-width="1" stroke-linecap="butt" stroke-linejoin="miter" stroke-miterlimit="10" stroke-dasharray="" stroke-dashoffset="0" font-family="none" font-weight="none" font-size="none" text-anchor="none" style="mix-blend-mode: normal"><g transform="translate(0.00025,0) scale(0.5,0.5)"><g><g><path d="M123.733,298.667c-21.171,0 -38.4,17.229 -38.4,38.4c0,21.171 17.229,38.4 38.4,38.4c21.171,0 38.4,-17.229 38.4,-38.4c0,-21.171 -17.228,-38.4 -38.4,-38.4zM123.733,358.4c-11.767,0 -21.333,-9.566 -21.333,-21.333c0,-11.767 9.566,-21.333 21.333,-21.333c11.767,0 21.333,9.566 21.333,21.333c0,11.767 -9.565,21.333 -21.333,21.333z"></path></g></g><g><g><path d="M503.467,324.267c0,-18.944 -0.41,-35.891 -1.126,-51.2l-0.991,-17.067c-8.201,-119.347 -38.195,-119.467 -49.084,-119.467h-256c-61.15,0 -122.47,15.795 -142.549,36.617c-0.009,0.009 -0.017,0.017 -0.026,0.034c-20.164,20.164 -33.074,46.797 -39.722,82.816l-2.62,17.067c-1.886,15.454 -2.816,32.444 -2.816,51.2c-4.719,0 -8.533,3.814 -8.533,8.533c0,4.719 3.814,8.533 8.533,8.533h42.658c2.756,0 5.342,-1.331 6.946,-3.575l38.844,-54.374c0.802,-1.118 2.091,-1.784 3.473,-1.784h46.558c1.374,0 2.671,0.666 3.473,1.784l38.844,54.374c1.596,2.244 4.181,3.575 6.938,3.575h136.533c3.234,0 6.187,-1.826 7.629,-4.719l4.992,-9.992c0.734,-1.442 2.21,-2.355 3.823,-2.355h11.588c-4.215,11.827 -4.292,24.764 10.795,39.902c7.091,7.108 16.725,11.674 26.76,11.264c20.446,-0.836 36.813,-17.724 36.813,-38.366c0,-4.446 -0.964,-8.695 -2.432,-12.8h11.588c1.613,0 3.098,0.913 3.814,2.355l4.992,9.992c1.451,2.893 4.403,4.719 7.637,4.719h42.667c4.719,0 8.533,-3.814 8.533,-8.533c0,-4.719 -3.813,-8.533 -8.532,-8.533zM79.445,198.613l-7.313,25.6c-1.05,3.661 -4.395,6.187 -8.209,6.187h-19.473c-3.004,0 -5.137,-3.072 -4.019,-5.854c5.555,-13.833 12.757,-25.481 21.692,-35.379c0.836,-0.922 2.031,-1.434 3.26,-1.434h5.854c5.674,0 9.761,5.428 8.208,10.88zM170.667,221.867c0,4.71 -3.823,8.533 -8.533,8.533h-62.704c-5.666,0 -9.762,-5.427 -8.209,-10.88l7.313,-25.6c1.05,-3.661 4.395,-6.187 8.209,-6.187h55.39c4.71,0 8.533,3.823 8.533,8.533v25.601zM298.667,221.867c0,4.71 -3.823,8.533 -8.533,8.533h-93.867c-4.71,0 -8.533,-3.823 -8.533,-8.533v-25.6c0,-4.71 3.823,-8.533 8.533,-8.533h93.867c4.71,0 8.533,3.823 8.533,8.533zM417.784,341.069c-1.289,7.535 -6.946,14.029 -14.251,16.29c-14.618,4.523 -28.066,-6.34 -28.066,-20.292c0,-3.2 0.691,-6.272 2.048,-9.139l1.741,-3.661h35.089l1.749,3.686c1.911,4.011 2.483,8.482 1.69,13.116zM424.055,230.4h-99.789c-4.71,0 -8.533,-3.823 -8.533,-8.533v-25.6c0,-4.71 3.823,-8.533 8.533,-8.533h96.128c4.25,0 7.851,3.123 8.448,7.33l3.661,25.6c0.734,5.137 -3.259,9.736 -8.448,9.736zM472.115,230.4h-13.577c-4.25,0 -7.851,-3.123 -8.448,-7.33l-3.661,-25.6c-0.734,-5.137 3.26,-9.737 8.448,-9.737h12.604c4.002,0 7.432,2.756 8.337,6.656c1.749,7.543 3.345,16.222 4.745,26.197c0.717,5.155 -3.242,9.814 -8.448,9.814z"></path></g></g></g></g></svg>