<svg version="1.1" xmlns="http://www.w3.org/2000/svg" xmlns:xlink="http://www.w3.org/1999/xlink" width="800px" height="800px" viewBox="0,0,256,256"><g fill="none" fill-rule="nonzero" stroke="#ff597a" stroke-width="1.91" stroke-linecap="butt" stroke-linejoin="miter" stroke-miterlimit="10" stroke-dasharray="" stroke-dashoffset="0" font-family="none" font-weight="none" font-size="none" text-anchor="none" style="mix-blend-mode: normal"><g transform="translate(0.00014,0) scale(10.66667,10.66667)"><circle cx="5.32" cy="3.41" r="1.91"></circle><path d="M1.5,22.5h1.91v-7.64h-1.91v-5.72c-0.00268,-0.50738 0.19769,-0.99475 0.55647,-1.35353c0.35878,-0.35878 0.84615,-0.55915 1.35353,-0.55647h3.82c1.05486,0 1.91,0.85514 1.91,1.91v5.72h-1.91v7.64h1.91"></path><circle cx="18.68" cy="3.41" r="1.91"></circle><path d="M14.86,22.5h1.91v-4.77h-1.91l1.57,-8.62c0.19792,-1.0876 1.14454,-1.87855 2.25,-1.88v0c1.10693,-0.0026 2.0558,0.79024 2.25,1.88l1.57,8.62h-1.91v4.77h1.91"></path></g></g></svg>