<svg version="1.1" xmlns="http://www.w3.org/2000/svg" xmlns:xlink="http://www.w3.org/1999/xlink" width="800px" height="800px" viewBox="0,0,256,256"><g fill="#ff597a" fill-rule="nonzero" stroke="none" stroke-width="1" stroke-linecap="butt" stroke-linejoin="miter" stroke-miterlimit="10" stroke-dasharray="" stroke-dashoffset="0" font-family="none" font-weight="none" font-size="none" text-anchor="none" style="mix-blend-mode: normal"><g transform="translate(0,3.88267) scale(7.75758,7.75758)"><path d="M22,29.012c0,0.553 0.447,1 1,1h1c0.552,0 1,-0.447 1,-1v-2.062h-3zM8,29.012c0,0.553 0.447,1 1,1h1c0.553,0 1,-0.447 1,-1v-2.062h-3zM4.985,25.729c0,0.67 0.544,1.215 1.215,1.215h20.596c0.671,0 1.215,-0.545 1.215,-1.215c0,-0.672 0,-0.715 0,-0.715h-23.026c0,0 0,0.043 0,0.715zM32,10.012v-2h-3.99l0.001,-1.088c0,-2.431 -2.489,-4.937 -11.974,-4.937c-8.338,0 -11.052,2.506 -11.052,4.937v1.088h-3.985v2h-1v4h1v2h3.985v7.974h23l0.022,-14.974h2.993v1h-1v4h1v1h-3v1h4v-2h1v-4zM4.985,15.012h-2.985v-1h1v-4h-1v-1h2.985zM12.5,4.95h8c0.276,0 0.5,0.224 0.5,0.5c0,0.276 -0.224,0.5 -0.5,0.5h-8c-0.276,0 -0.5,-0.224 -0.5,-0.5c0,-0.276 0.224,-0.5 0.5,-0.5zM7.041,9.229c0,-0.671 0.544,-1.215 1.215,-1.215h6.514c0.671,0 1.215,0.544 1.215,1.215v3.583c0,0.672 -0.544,1.216 -1.215,1.216h-6.514c-0.671,0 -1.215,-0.544 -1.215,-1.216zM8.988,21.738c-1.007,0 -1.822,-0.816 -1.822,-1.822c0,-1.008 0.815,-1.822 1.822,-1.822c1.007,0 1.823,0.814 1.823,1.822c0.001,1.006 -0.816,1.822 -1.823,1.822zM12,17.012h9v1h-9zM21.032,21.943h-9.006v-0.965h9.006zM21.032,19.951h-9.006v-0.965h9.006zM24.008,21.801c-1.007,0 -1.822,-0.816 -1.822,-1.822c0,-1.006 0.815,-1.822 1.822,-1.822c1.007,0 1.823,0.816 1.823,1.822c0,1.006 -0.816,1.822 -1.823,1.822zM26.005,12.812c0,0.672 -0.544,1.216 -1.216,1.216h-6.562c-0.672,0 -1.216,-0.544 -1.216,-1.216v-3.583c0,-0.671 0.544,-1.215 1.216,-1.215h6.562c0.672,0 1.216,0.544 1.216,1.215z"></path></g></g></svg>