<svg version="1.1" xmlns="http://www.w3.org/2000/svg" xmlns:xlink="http://www.w3.org/1999/xlink" width="800px" height="800px" viewBox="0,0,256,256"><g fill="#ff597a" fill-rule="evenodd" stroke="none" stroke-width="1" stroke-linecap="butt" stroke-linejoin="miter" stroke-miterlimit="10" stroke-dasharray="" stroke-dashoffset="0" font-family="none" font-weight="none" font-size="none" text-anchor="none" style="mix-blend-mode: normal"><g transform="translate(-0.00455,51.00508) scale(2.08333,2.08333)"><g><path d="M97.31,36.95c0,9.92 -3.49,18.39 -10.48,25.38c-7,7 -15.46,10.5 -25.38,10.5c-9.88,0 -18.34,-3.49 -25.35,-10.5c-7,-6.99 -10.52,-15.46 -10.52,-25.38c0,-9.89 3.51,-18.32 10.52,-25.34c7.03,-7 15.48,-10.52 25.35,-10.52c9.92,0 18.38,3.51 25.38,10.52c6.98,7.02 10.48,15.45 10.48,25.34v0v0zM16.37,30.34c3.15,-2.15 4.73,-4.96 4.46,-11.39v-16.53c-0.03,-2.31 -4.22,-2.59 -4.43,0l-0.16,13.41c-0.01,2.51 -3.78,2.59 -3.77,0l0.16,-13.87c-0.05,-2.48 -4.05,-2.73 -4.1,0c0,3.85 -0.16,10.02 -0.16,13.87c0.2,2.43 -3.3,2.75 -3.21,0l0.16,-13.78c-0.09,-1.87 -2.15,-2.54 -3.55,-1.66c-1.49,0.95 -1.19,2.86 -1.25,4.47l-0.52,15.82c0.08,4.6 1.29,8.34 4.89,9.93c0.55,0.24 1.31,0.43 2.19,0.56l-1.24,38.58c-0.07,2.29 1.8,4.16 3.99,4.16h0.5c2.47,0 4.56,-2.11 4.49,-4.68l-1.09,-38.07c1.15,-0.18 2.1,-0.45 2.64,-0.82zM106.74,68.59l-0.06,-34.65c-12.15,-7.02 -8.28,-34.07 3.88,-33.92c14.78,0.17 16.53,30.48 3.82,33.81l0.94,34.9c0.18,6.6 -8.57,7.21 -8.58,-0.14zM82.33,36.92c0,5.78 -2.03,10.71 -6.12,14.8c-4.08,4.07 -9.01,6.12 -14.79,6.12c-5.74,0 -10.67,-2.05 -14.75,-6.12c-4.08,-4.09 -6.12,-9.02 -6.12,-14.8c0,-5.74 2.04,-10.67 6.12,-14.74c4.09,-4.07 9.01,-6.12 14.75,-6.12c11.61,0.01 20.91,9.24 20.91,20.86v0zM87.22,36.92c0,-7.1 -2.5,-13.17 -7.53,-18.2c-5.03,-5.03 -11.12,-7.53 -18.27,-7.53c-7.13,0 -13.2,2.5 -18.2,7.53c-5.03,5.03 -7.56,11.1 -7.56,18.2c0,7.12 2.53,13.19 7.56,18.24c5,5.04 11.07,7.57 18.2,7.57c7.14,0 13.23,-2.53 18.27,-7.57c5.02,-5.06 7.53,-11.13 7.53,-18.24v0v0z"></path></g></g></g></svg>