<svg version="1.1" xmlns="http://www.w3.org/2000/svg" xmlns:xlink="http://www.w3.org/1999/xlink" width="800px" height="800px" viewBox="0,0,256,256"><g fill="#ff597a" fill-rule="nonzero" stroke="none" stroke-width="1" stroke-linecap="butt" stroke-linejoin="miter" stroke-miterlimit="10" stroke-dasharray="" stroke-dashoffset="0" font-family="none" font-weight="none" font-size="none" text-anchor="none" style="mix-blend-mode: normal"><g transform="translate(-1.36,0) scale(0.25,0.25)"><path d="M640,608h-64v-192h64zM640,768v160c0,17.67311 -14.32689,32 -32,32h-192c-17.67311,0 -32,-14.32689 -32,-32v-160h64v128h128v-128zM384,608v-192h64v192zM640,256h-64v-128h-128v128h-64v-160c0,-17.67311 14.32689,-32 32,-32h192c17.67311,0 32,14.32689 32,32z"></path><path d="M220.8,256l-71.232,80l71.168,80h547.264v-160zM206.4,192h593.6c17.67311,0 32,14.32689 32,32v224c0,17.67311 -14.32689,32 -32,32h-593.6c-9.14882,0.00245 -17.86118,-3.91113 -23.936,-10.752l-99.584,-112c-10.76341,-12.12071 -10.76341,-30.37529 0,-42.496l99.584,-112c6.07482,-6.84087 14.78718,-10.75445 23.936,-10.752zM885.184,688l-71.104,80h-547.264v-160h547.2zM828.416,544h-593.536c-17.67311,0 -32,14.32689 -32,32v224c0,17.67311 14.32689,32 32,32h593.6c9.14882,0.00245 17.86118,-3.91113 23.936,-10.752l99.584,-112c10.76341,-12.12071 10.76341,-30.37529 0,-42.496l-99.584,-112c-6.07482,-6.84087 -14.78718,-10.75445 -23.936,-10.752z"></path></g></g></svg>