<svg version="1.1" xmlns="http://www.w3.org/2000/svg" xmlns:xlink="http://www.w3.org/1999/xlink" width="800px" height="800px" viewBox="0,0,256,256"><g fill="#ff597a" fill-rule="nonzero" stroke="none" stroke-width="1" stroke-linecap="butt" stroke-linejoin="miter" stroke-miterlimit="10" stroke-dasharray="" stroke-dashoffset="0" font-family="none" font-weight="none" font-size="none" text-anchor="none" style="mix-blend-mode: normal"><g transform="translate(-0.00025,0) scale(0.5,0.5)"><g><g><path d="M151.755,32.206c-4.783,0 -8.661,3.878 -8.661,8.661v19.312h-14.147v-19.312c0,-4.783 -3.878,-8.661 -8.661,-8.661c-4.783,0 -8.661,3.878 -8.661,8.661v55.944c0,4.783 3.878,8.661 8.661,8.661c4.783,0 8.661,-3.878 8.661,-8.661v-19.31h14.147v19.31c0,4.783 3.878,8.661 8.661,8.661c4.783,0 8.661,-3.878 8.661,-8.661v-55.944c0,-4.783 -3.878,-8.661 -8.661,-8.661z"></path></g></g><g><g><path d="M201.393,32.206c-13.451,0 -24.395,10.944 -24.395,24.396v24.474c0,13.451 10.944,24.395 24.395,24.395c13.452,0 24.396,-10.944 24.396,-24.395v-24.474c0,-13.452 -10.944,-24.396 -24.396,-24.396zM208.468,81.076c0,3.9 -3.173,7.073 -7.074,7.073c-3.9,0 -7.073,-3.173 -7.073,-7.073v-24.474c0,-3.901 3.173,-7.074 7.073,-7.074c3.901,0 7.074,3.173 7.074,7.074z"></path></g></g><g><g><path d="M338.466,88.15h-22.808v-10.41h12.796c4.783,0 8.661,-3.878 8.661,-8.661c0,-4.783 -3.878,-8.661 -8.661,-8.661h-12.796v-10.89h22.808c4.783,0 8.661,-3.878 8.661,-8.661c0,-4.783 -3.878,-8.661 -8.661,-8.661h-31.469c-4.783,0 -8.661,3.878 -8.661,8.661v55.944c0,4.783 3.878,8.661 8.661,8.661h31.469c4.783,0 8.661,-3.878 8.661,-8.661c0,-4.783 -3.878,-8.661 -8.661,-8.661z"></path></g></g><g><g><path d="M403.262,88.15h-22.808v-47.283c0,-4.783 -3.878,-8.661 -8.661,-8.661c-4.783,0 -8.661,3.878 -8.661,8.661v55.944c0,4.783 3.878,8.661 8.661,8.661h31.469c4.783,0 8.661,-3.878 8.661,-8.661c0,-4.783 -3.878,-8.661 -8.661,-8.661z"></path></g></g><g><g><path d="M275.064,32.206h-31.469c-4.783,0 -8.661,3.878 -8.661,8.661c0,4.783 3.878,8.661 8.661,8.661h7.073v47.283c0,4.783 3.878,8.661 8.661,8.661c4.783,0 8.661,-3.878 8.661,-8.661v-47.283h7.074c4.783,0 8.661,-3.878 8.661,-8.661c0,-4.783 -3.878,-8.661 -8.661,-8.661z"></path></g></g><g><g><path d="M484.414,234.103c-4.783,0 -8.661,3.878 -8.661,8.661v251.914h-80.519v-50.63c0,-19.837 -16.138,-35.975 -35.974,-35.975c-19.837,0 -35.975,16.138 -35.975,35.975v50.63h-31.31v-50.63c0,-19.837 -16.138,-35.975 -35.974,-35.975c-19.836,0 -35.974,16.138 -35.974,35.975v50.63h-31.31v-50.63c0,-19.837 -16.138,-35.975 -35.975,-35.975c-19.836,0 -35.974,16.138 -35.974,35.975v50.63h-80.52v-48.67c0,-4.783 -3.878,-8.661 -8.661,-8.661c-4.783,0 -8.661,3.878 -8.661,8.661v57.331c0,4.783 3.878,8.661 8.661,8.661h456.828c4.783,0 8.661,-3.878 8.661,-8.661v-260.575c-0.001,-4.783 -3.879,-8.661 -8.662,-8.661zM171.393,494.678h-37.306v-50.63c0,-10.286 8.368,-18.653 18.652,-18.653c10.286,0 18.653,8.368 18.653,18.653v50.63zM274.653,494.678h-37.306v-50.63c0,-10.286 8.368,-18.653 18.653,-18.653c10.285,0 18.652,8.368 18.652,18.653v50.63zM377.912,494.678h-37.306v-50.63c0,-10.286 8.368,-18.653 18.653,-18.653c10.285,0 18.652,8.368 18.652,18.653v50.63z"></path></g></g><g><g><path d="M85.389,335.902c-13.371,0 -24.251,10.878 -24.251,24.251v32.91c0,4.783 3.878,8.661 8.661,8.661h31.178c4.783,0 8.661,-3.878 8.661,-8.661v-32.91c0.001,-13.372 -10.878,-24.251 -24.249,-24.251zM92.317,384.402h-13.857v-24.25c0,-3.82 3.108,-6.929 6.929,-6.929c3.821,0 6.928,3.108 6.928,6.929z"></path></g></g><g><g><path d="M221.878,335.902c-13.373,0 -24.25,10.878 -24.25,24.251v32.91c0,4.783 3.878,8.661 8.661,8.661h31.178c4.783,0 8.661,-3.878 8.661,-8.661v-32.91c0,-13.372 -10.878,-24.251 -24.25,-24.251zM228.806,384.402h-13.856v-24.25c0,-3.82 3.108,-6.929 6.928,-6.929c3.82,0 6.929,3.108 6.929,6.929v24.25z"></path></g></g><g><g><path d="M153.633,335.902c-13.372,0 -24.25,10.878 -24.25,24.251v32.91c0,4.783 3.878,8.661 8.661,8.661h31.178c4.783,0 8.661,-3.878 8.661,-8.661v-32.91c0,-13.372 -10.878,-24.251 -24.25,-24.251zM160.561,384.402h-13.856v-24.25c0,-3.82 3.108,-6.929 6.928,-6.929c3.82,0 6.929,3.108 6.929,6.929v24.25z"></path></g></g><g><g><path d="M290.124,335.902c-13.371,0 -24.251,10.878 -24.251,24.251v32.91c0,4.783 3.878,8.661 8.661,8.661h31.178c4.783,0 8.661,-3.878 8.661,-8.661v-32.91c0,-13.372 -10.878,-24.251 -24.249,-24.251zM297.051,384.402h-13.856v-24.25c0,-3.82 3.108,-6.929 6.929,-6.929c3.821,0 6.928,3.108 6.928,6.929v24.25z"></path></g></g><g><g><path d="M426.612,335.902c-13.372,0 -24.25,10.878 -24.25,24.251v32.91c0,4.783 3.878,8.661 8.661,8.661h31.178c4.783,0 8.661,-3.878 8.661,-8.661v-32.91c0.001,-13.372 -10.877,-24.251 -24.25,-24.251zM433.541,384.402h-13.856v-24.25c0,-3.82 3.108,-6.929 6.928,-6.929c3.82,0 6.929,3.108 6.929,6.929v24.25z"></path></g></g><g><g><path d="M358.368,335.902c-13.371,0 -24.251,10.878 -24.251,24.251v32.91c0,4.783 3.878,8.661 8.661,8.661h31.178c4.783,0 8.661,-3.878 8.661,-8.661v-32.91c0.001,-13.372 -10.877,-24.251 -24.249,-24.251zM365.296,384.402h-13.856v-24.25c0,-3.82 3.108,-6.929 6.929,-6.929c3.821,0 6.928,3.108 6.928,6.929v24.25z"></path></g></g><g><g><path d="M85.389,251.895c-13.371,0 -24.251,10.878 -24.251,24.25v32.91c0,4.783 3.878,8.661 8.661,8.661h31.178c4.783,0 8.661,-3.878 8.661,-8.661v-32.91c0.001,-13.372 -10.878,-24.25 -24.249,-24.25zM92.317,300.394h-13.857v-24.25c0,-3.82 3.108,-6.928 6.929,-6.928c3.821,0 6.928,3.108 6.928,6.928z"></path></g></g><g><g><path d="M221.878,251.895c-13.373,0 -24.25,10.878 -24.25,24.25v32.91c0,4.783 3.878,8.661 8.661,8.661h31.178c4.783,0 8.661,-3.878 8.661,-8.661v-32.91c0,-13.372 -10.878,-24.25 -24.25,-24.25zM228.806,300.394h-13.856v-24.25c0,-3.82 3.108,-6.928 6.928,-6.928c3.82,0 6.929,3.108 6.929,6.928v24.25z"></path></g></g><g><g><path d="M153.633,251.895c-13.372,0 -24.25,10.878 -24.25,24.25v32.91c0,4.783 3.878,8.661 8.661,8.661h31.178c4.783,0 8.661,-3.878 8.661,-8.661v-32.91c0,-13.372 -10.878,-24.25 -24.25,-24.25zM160.561,300.394h-13.856v-24.25c0,-3.82 3.108,-6.928 6.928,-6.928c3.82,0 6.929,3.108 6.929,6.928v24.25z"></path></g></g><g><g><path d="M290.124,251.895c-13.371,0 -24.251,10.878 -24.251,24.25v32.91c0,4.783 3.878,8.661 8.661,8.661h31.178c4.783,0 8.661,-3.878 8.661,-8.661v-32.91c0,-13.372 -10.878,-24.25 -24.249,-24.25zM297.051,300.394h-13.856v-24.25c0,-3.82 3.108,-6.928 6.929,-6.928c3.821,0 6.928,3.108 6.928,6.928v24.25z"></path></g></g><g><g><path d="M426.612,251.895c-13.372,0 -24.25,10.878 -24.25,24.25v32.91c0,4.783 3.878,8.661 8.661,8.661h31.178c4.783,0 8.661,-3.878 8.661,-8.661v-32.91c0.001,-13.372 -10.877,-24.25 -24.25,-24.25zM433.541,300.394h-13.856v-24.25c0,-3.82 3.108,-6.928 6.928,-6.928c3.82,0 6.929,3.108 6.929,6.928v24.25z"></path></g></g><g><g><path d="M358.368,251.895c-13.371,0 -24.251,10.878 -24.251,24.25v32.91c0,4.783 3.878,8.661 8.661,8.661h31.178c4.783,0 8.661,-3.878 8.661,-8.661v-32.91c0.001,-13.372 -10.877,-24.25 -24.249,-24.25zM365.296,300.394h-13.856v-24.25c0,-3.82 3.108,-6.928 6.929,-6.928c3.821,0 6.928,3.108 6.928,6.928v24.25z"></path></g></g><g><g><path d="M85.388,167.887c-13.371,0 -24.251,10.878 -24.251,24.251v32.911c0,4.783 3.878,8.661 8.661,8.661h31.178c4.783,0 8.661,-3.878 8.661,-8.661v-32.911c0,-13.371 -10.878,-24.251 -24.249,-24.251zM92.317,216.388h-13.857v-24.25c0,-3.82 3.108,-6.929 6.929,-6.929c3.821,0 6.928,3.108 6.928,6.929z"></path></g></g><g><g><path d="M221.876,167.887c-13.372,0 -24.25,10.878 -24.25,24.251v32.911c0,4.783 3.878,8.661 8.661,8.661h31.178c4.783,0 8.661,-3.878 8.661,-8.661v-32.911c0.001,-13.371 -10.877,-24.251 -24.25,-24.251zM228.806,216.388h-13.856v-24.25c0,-3.82 3.108,-6.929 6.928,-6.929c3.82,0 6.929,3.108 6.929,6.929v24.25z"></path></g></g><g><g><path d="M153.632,167.887c-13.373,0 -24.25,10.878 -24.25,24.251v32.911c0,4.783 3.878,8.661 8.661,8.661h31.178c4.783,0 8.661,-3.878 8.661,-8.661v-32.911c0,-13.371 -10.878,-24.251 -24.25,-24.251zM160.561,216.388h-13.856v-24.25c0,-3.82 3.108,-6.929 6.928,-6.929c3.82,0 6.929,3.108 6.929,6.929v24.25z"></path></g></g><g><g><path d="M290.122,167.887c-13.371,0 -24.251,10.878 -24.251,24.251v32.911c0,4.783 3.878,8.661 8.661,8.661h31.178c4.783,0 8.661,-3.878 8.661,-8.661v-32.911c0.001,-13.371 -10.877,-24.251 -24.249,-24.251zM297.051,216.388h-13.856v-24.25c0,-3.82 3.108,-6.929 6.929,-6.929c3.821,0 6.928,3.108 6.928,6.929v24.25z"></path></g></g><g><g><path d="M426.612,167.887c-13.372,0 -24.25,10.878 -24.25,24.251v32.911c0,4.783 3.878,8.661 8.661,8.661h31.178c4.783,0 8.661,-3.878 8.661,-8.661v-32.911c0.001,-13.371 -10.877,-24.251 -24.25,-24.251zM433.541,216.388h-13.856v-24.25c0,-3.82 3.108,-6.929 6.928,-6.929c3.82,0 6.929,3.108 6.929,6.929v24.25z"></path></g></g><g><g><path d="M358.367,167.887c-13.371,0 -24.251,10.878 -24.251,24.251v32.911c0,4.783 3.878,8.661 8.661,8.661h31.178c4.783,0 8.661,-3.878 8.661,-8.661v-32.911c0.001,-13.371 -10.877,-24.251 -24.249,-24.251zM365.296,216.388h-13.856v-24.25c0,-3.82 3.108,-6.929 6.929,-6.929c3.821,0 6.928,3.108 6.928,6.929v24.25z"></path></g></g><g><g><path d="M499.235,116.665h-38.846v-108.004c0,-4.783 -3.878,-8.661 -8.661,-8.661h-70.049c-4.783,0 -8.661,3.878 -8.661,8.661c0,4.783 3.878,8.661 8.661,8.661h61.388v99.344h-374.134v-99.344h283.876c4.783,0 8.661,-3.878 8.661,-8.661c0,-4.783 -3.878,-8.661 -8.661,-8.661h-292.537c-4.783,0 -8.661,3.878 -8.661,8.661v108.004h-38.846c-4.783,0 -8.661,3.878 -8.661,8.661v24.663c0,4.783 3.878,8.661 8.661,8.661h6.16v258.487c0,4.783 3.878,8.661 8.661,8.661c4.783,0 8.661,-3.878 8.661,-8.661v-258.486h439.507v55.243c0,4.783 3.878,8.661 8.661,8.661c4.783,0 8.661,-3.878 8.661,-8.661v-55.243h6.16c4.783,0 8.661,-3.878 8.661,-8.661v-24.663c-0.001,-4.784 -3.879,-8.662 -8.662,-8.662zM490.574,141.33h-469.148v-7.341h469.148z"></path></g></g></g></g></svg>