<svg version="1.1" xmlns="http://www.w3.org/2000/svg" xmlns:xlink="http://www.w3.org/1999/xlink" width="32px" height="32px" viewBox="0,0,256,256"><g fill="none" fill-rule="nonzero" stroke="#ff597a" stroke-width="2" stroke-linecap="round" stroke-linejoin="round" stroke-miterlimit="10" stroke-dasharray="" stroke-dashoffset="0" font-family="none" font-weight="none" font-size="none" text-anchor="none" style="mix-blend-mode: normal"><g transform="translate(0,4.4) scale(8,8)"><path d="M11.2,21c0.4,1.2 1.5,2 2.8,2"></path><path d="M13,17v2"></path><path d="M19,17v2"></path><path d="M16,7l-6.8,-4.1v0c-1.6,2.5 -1.6,5.7 0,8.1v0l13.5,-8.1v0c1.6,2.5 1.6,5.7 0,8.1v0l-6.7,-4"></path><path d="M8.3,9.1c-1.4,1.3 -2.4,3 -2.9,4.9c-1.4,0.3 -2.4,1.5 -2.4,3c0,1.5 1,2.7 2.4,2.9c1.3,4.7 5.5,8.1 10.6,8.1c5.1,0 9.3,-3.4 10.6,-8.1c1.4,-0.2 2.4,-1.4 2.4,-2.9c0,-1.5 -1,-2.7 -2.4,-2.9c-0.5,-1.9 -1.5,-3.6 -2.9,-4.9"></path><path d="M20.3,9.6c0,0.1 0.1,0.1 0.1,0.2c0.8,1.3 0.4,3.1 -0.9,3.9c-1.1,0.7 -2.5,0.3 -3.2,-0.8"></path><path d="M15.9,7.3c0.1,0 0.1,0.1 0.2,0.1c1.3,1 1.7,2.9 0.8,4.3c-0.7,1.1 -2.1,1.4 -3.2,0.6"></path></g></g></svg>