<svg version="1.1" xmlns="http://www.w3.org/2000/svg" xmlns:xlink="http://www.w3.org/1999/xlink" width="800px" height="800px" viewBox="0,0,256,256"><g fill="#ff597a" fill-rule="nonzero" stroke="none" stroke-width="1" stroke-linecap="butt" stroke-linejoin="miter" stroke-miterlimit="10" stroke-dasharray="" stroke-dashoffset="0" font-family="none" font-weight="none" font-size="none" text-anchor="none" style="mix-blend-mode: normal"><g transform="scale(4,4)"><g><path d="M32,48c6.627,0 12,-5.373 12,-12c0,-6.627 -5.373,-12 -12,-12c-6.627,0 -12,5.373 -12,12c0,6.627 5.373,12 12,12zM32,28c4.418,0 8,3.582 8,8c0,0.553 -0.447,1 -1,1c-0.553,0 -1,-0.447 -1,-1c0,-3.313 -2.687,-6 -6,-6c-0.553,0 -1,-0.447 -1,-1c0,-0.553 0.447,-1 1,-1z"></path><path d="M32,52c8.837,0 16,-7.162 16,-16c0,-8.837 -7.163,-16 -16,-16c-8.837,0 -16,7.163 -16,16c0,8.838 7.163,16 16,16zM32,22c7.732,0 14,6.268 14,14c0,7.732 -6.268,14 -14,14c-7.732,0 -14,-6.268 -14,-14c0,-7.732 6.268,-14 14,-14z"></path><circle cx="55" cy="21" r="1"></circle><path d="M60,12c0,0 -7,0 -8,0c-1,0 -1.582,0.004 -2.793,-1.207c-1.211,-1.211 -5.538,-5.538 -5.538,-5.538c-0.188,-0.188 -1.339,-1.255 -2.669,-1.255c-1.33,0 -16.547,0 -18,0c-1.453,0 -2.498,1.084 -2.686,1.271c0,0 -4.326,4.326 -5.521,5.521c-1.195,1.195 -1.775,1.208 -2.793,1.208v-3c0,-0.553 -0.447,-1 -1,-1h-6c-0.553,0 -1,0.447 -1,1v3c-2.211,0 -4,1.789 -4,4v12h15.893c2.947,-5.922 9.044,-10 16.107,-10c7.063,0 13.16,4.078 16.107,10h15.893v-12c0,-2.211 -1.789,-4 -4,-4zM10,12c-1.24,0 -2.782,0 -4,0v-2h4zM55,24c-1.657,0 -3,-1.344 -3,-3c0,-1.656 1.343,-3 3,-3c1.657,0 3,1.344 3,3c0,1.656 -1.343,3 -3,3z"></path><path d="M50,36c0,9.941 -8.059,18 -18,18c-9.941,0 -18,-8.059 -18,-18c0,-2.107 0.381,-4.121 1.046,-6h-15.046v26c0,2.211 1.789,4 4,4h56c2.211,0 4,-1.789 4,-4v-26h-15.046c0.665,1.879 1.046,3.893 1.046,6z"></path></g></g></g></svg>