<svg version="1.1" xmlns="http://www.w3.org/2000/svg" xmlns:xlink="http://www.w3.org/1999/xlink" width="800px" height="800px" viewBox="0,0,256,256"><g fill="none" fill-rule="none" stroke="none" stroke-width="1" stroke-linecap="butt" stroke-linejoin="miter" stroke-miterlimit="10" stroke-dasharray="" stroke-dashoffset="0" font-family="none" font-weight="none" font-size="none" text-anchor="none" style="mix-blend-mode: normal"><g transform="scale(10.66667,10.66667)"><rect x="0" y="0" width="24" height="24" fill-opacity="0" fill="#ffffff" fill-rule="nonzero"></rect><path d="M7.25007,2.38782c1.29871,-0.28862 2.87423,-0.38782 4.74993,-0.38782c1.8757,0 3.4512,0.0992 4.7499,0.38782c1.3101,0.29115 2.3989,0.78818 3.2365,1.62576c0.8376,0.83758 1.3346,1.92644 1.6258,3.23649c0.2886,1.29871 0.3878,2.87423 0.3878,4.74993c0,1.8757 -0.0992,3.4512 -0.3878,4.7499c-0.2912,1.3101 -0.7882,2.3989 -1.6258,3.2365c-0.8376,0.8376 -1.9264,1.3346 -3.2365,1.6258c-1.2987,0.2886 -2.8742,0.3878 -4.7499,0.3878c-1.8757,0 -3.45122,-0.0992 -4.74993,-0.3878c-1.31005,-0.2912 -2.39891,-0.7882 -3.23649,-1.6258c-0.83758,-0.8376 -1.33461,-1.9264 -1.62576,-3.2365c-0.28862,-1.2987 -0.38782,-2.8742 -0.38782,-4.7499c0,-1.8757 0.0992,-3.45122 0.38782,-4.74993c0.29115,-1.31005 0.78818,-2.39891 1.62576,-3.23649c0.83758,-0.83758 1.92644,-1.33461 3.23649,-1.62576zM12,6c-2.20914,0 -4,1.79086 -4,4c0,2.2091 1.79086,4 4,4c2.2091,0 4,-1.7909 4,-4c0,-2.20914 -1.7909,-4 -4,-4zM18.3775,17.2942c0.3528,0.5753 0.228,1.3358 -0.3406,1.6993c-0.517,0.3306 -1.1211,0.533 -1.721,0.6663c-1.0837,0.2408 -2.486,0.3402 -4.3161,0.3402c-1.83,0 -3.23236,-0.0994 -4.31599,-0.3402c-0.58865,-0.1308 -1.18176,-0.3279 -1.6925,-0.6478c-0.57884,-0.3625 -0.70608,-1.1334 -0.34457,-1.7129c0.41629,-0.6673 0.99002,-1.1916 1.76208,-1.5647c1.1714,-0.566 2.70688,-0.7344 4.59078,-0.7344c1.8775,0 3.4113,0.1548 4.5811,0.7047c0.792,0.3723 1.3765,0.9042 1.7968,1.5895z" fill="#fd393f" fill-rule="evenodd"></path></g></g></svg>