<svg version="1.1" xmlns="http://www.w3.org/2000/svg" xmlns:xlink="http://www.w3.org/1999/xlink" width="800px" height="800px" viewBox="0,0,256,256"><g fill="#ff597a" fill-rule="nonzero" stroke="none" stroke-width="1" stroke-linecap="butt" stroke-linejoin="miter" stroke-miterlimit="10" stroke-dasharray="" stroke-dashoffset="0" font-family="none" font-weight="none" font-size="none" text-anchor="none" style="mix-blend-mode: normal"><g transform="translate(13.47368,-1.06442) scale(13.47368,13.47368)"><path d="M16.417,9.579c0,4.37244 -3.54456,7.917 -7.917,7.917c-4.37244,0 -7.917,-3.54456 -7.917,-7.917c0,-4.37244 3.54456,-7.917 7.917,-7.917c4.37244,0 7.917,3.54456 7.917,7.917zM4.63,8.182l2.45,-2.449l-0.966,-0.966c-0.30974,-0.30816 -0.81026,-0.30816 -1.12,0l-1.329,1.33c-0.30816,0.30974 -0.30816,0.81026 0,1.12zM12.86,14.143c0.13,0 0.206,-0.1 0.173,-0.247l-0.573,-2.542c-0.05361,-0.19805 -0.15371,-0.38043 -0.292,-0.532l-4.53,-4.53l-0.634,0.636l4.529,4.529l0.252,-0.252c0.06592,0.07895 0.11584,0.16998 0.147,0.268l0.253,1.124l-0.69,0.69l-1.125,-0.252c-0.09804,-0.0316 -0.18904,-0.08185 -0.268,-0.148l0.871,-0.87l-4.53,-4.53l-1.253,1.255l4.53,4.528c0.15186,0.13863 0.33458,0.23907 0.533,0.293l2.542,0.573c0.02164,0.0051 0.04377,0.00779 0.066,0.008z"></path></g></g></svg>