<svg version="1.1" xmlns="http://www.w3.org/2000/svg" xmlns:xlink="http://www.w3.org/1999/xlink" width="800px" height="800px" viewBox="0,0,256,256"><g fill="none" fill-rule="nonzero" stroke="#ff597a" stroke-width="2" stroke-linecap="round" stroke-linejoin="round" stroke-miterlimit="10" stroke-dasharray="" stroke-dashoffset="0" font-family="none" font-weight="none" font-size="none" text-anchor="none" style="mix-blend-mode: normal"><g transform="scale(10.66667,10.66667)"><path d="M12,7v13M12,7h-3.53571c-0.52097,0 -1.02059,-0.21071 -1.38896,-0.58579c-0.36838,-0.37507 -0.57533,-0.88378 -0.57533,-1.41421c0,-0.53043 0.20695,-1.03914 0.57533,-1.41421c0.36837,-0.37508 0.86799,-0.58579 1.38896,-0.58579c2.75001,0 3.53571,4 3.53571,4zM12,7h3.5357c0.521,0 1.0206,-0.21071 1.389,-0.58579c0.3683,-0.37507 0.5753,-0.88378 0.5753,-1.41421c0,-0.53043 -0.207,-1.03914 -0.5753,-1.41421c-0.3684,-0.37508 -0.868,-0.58579 -1.389,-0.58579c-2.75,0 -3.5357,4 -3.5357,4zM5,12h14v5.8c0,1.1201 0,1.6802 -0.218,2.108c-0.1917,0.3763 -0.4977,0.6823 -0.874,0.874c-0.4278,0.218 -0.9879,0.218 -2.108,0.218h-7.6c-1.12011,0 -1.68016,0 -2.10798,-0.218c-0.37633,-0.1917 -0.68229,-0.4977 -0.87403,-0.874c-0.21799,-0.4278 -0.21799,-0.9879 -0.21799,-2.108zM4.6,12h14.8c0.5601,0 0.8401,0 1.054,-0.109c0.1882,-0.0959 0.3411,-0.2488 0.437,-0.437c0.109,-0.2139 0.109,-0.4939 0.109,-1.054v-1.8c0,-0.56005 0,-0.84008 -0.109,-1.05399c-0.0959,-0.18816 -0.2488,-0.34114 -0.437,-0.43702c-0.2139,-0.10899 -0.4939,-0.10899 -1.054,-0.10899h-14.8c-0.56005,0 -0.84008,0 -1.05399,0.10899c-0.18816,0.09588 -0.34114,0.24886 -0.43702,0.43702c-0.10899,0.21391 -0.10899,0.49394 -0.10899,1.05399v1.8c0,0.5601 0,0.8401 0.10899,1.054c0.09588,0.1882 0.24886,0.3411 0.43702,0.437c0.21391,0.109 0.49394,0.109 1.05399,0.109z"></path></g></g></svg>