<svg version="1.1" xmlns="http://www.w3.org/2000/svg" xmlns:xlink="http://www.w3.org/1999/xlink" width="600" height="137" viewBox="0,0,256,58.45313"><g fill="#ffffff" fill-rule="nonzero" stroke="none" stroke-width="1" stroke-linecap="butt" stroke-linejoin="miter" stroke-miterlimit="10" stroke-dasharray="" stroke-dashoffset="0" font-family="none" font-weight="none" font-size="none" text-anchor="none" style="mix-blend-mode: normal"><g transform="translate(2.03876,-1.41167) scale(0.42667,0.42667)"><path d="M100.617,26.0078c-1.4647,3.8412 -2.9295,7.5521 -4.3943,11.1328c-1.4323,3.5808 -2.8646,7.0638 -4.2969,10.4492c-1.3998,3.3855 -2.8158,6.7058 -4.2481,9.961c-1.4323,3.2552 -2.8808,6.4616 -4.3457,9.6191c2.4414,-0.3581 4.9154,-0.7324 7.4219,-1.123c2.5391,-0.3907 4.8828,-0.7487 7.0313,-1.0742c2.1809,-0.3256 4.0528,-0.6023 5.6148,-0.8301c1.563,-0.2279 2.588,-0.3906 3.077,-0.4883c2.766,-6.6406 5.419,-13.3626 7.959,-20.166c2.571,-6.836 5.126,-13.8021 7.666,-20.8985c0.944,0.9441 1.969,1.9694 3.076,3.0762c1.107,1.1068 2.164,2.1647 3.174,3.1738c1.009,1.0092 1.888,1.9043 2.636,2.6856c0.749,0.7487 1.254,1.2695 1.514,1.5625c-2.279,4.8503 -4.509,9.5866 -6.69,14.209c-2.18,4.6224 -4.345,9.1471 -6.494,13.5742c2.897,-0.7162 5.209,-1.3672 6.934,-1.9531c1.725,-0.6185 3.027,-1.0905 3.906,-1.416c0.912,-0.3581 1.481,-0.5697 1.709,-0.6348c0.228,-0.0651 0.309,0.0488 0.244,0.3418c-0.097,0.2604 -0.309,0.7324 -0.634,1.416c-0.326,0.651 -0.733,1.3997 -1.221,2.2461c-0.456,0.8463 -0.977,1.7415 -1.563,2.6855c-0.586,0.9115 -1.172,1.7579 -1.757,2.5391c-0.554,0.7813 -1.091,1.4323 -1.612,1.9531c-0.521,0.5209 -0.96,0.7976 -1.318,0.8301c-0.684,0.1302 -1.481,0.2604 -2.393,0.3906c-0.781,0.1302 -1.758,0.293 -2.929,0.4883c-1.14,0.1628 -2.458,0.3581 -3.955,0.586c-3.386,6.901 -6.576,13.1673 -9.571,18.7988c-2.962,5.5989 -5.6476,10.319 -8.0564,14.1604c-1.2045,-0.977 -2.3438,-1.953 -3.418,-2.93c-1.0742,-0.944 -2.1322,-1.595 -3.1738,-1.9531c-0.6185,-3.8411 -1.7741,-8.0078 -3.4668,-12.5c-1.6927,-4.5247 -3.7598,-9.0169 -6.2012,-13.4765c-2.3112,4.8828 -4.6712,9.733 -7.0801,14.5507c-2.4088,4.7852 -4.9642,9.7168 -7.666,14.7949c-1.3997,-1.139 -2.7344,-2.1484 -4.0039,-3.0273c-1.3021,-0.8463 -2.3926,-1.595 -3.2715,-2.2461c1.4323,-2.832 2.9948,-6.0547 4.6875,-9.6679c1.6927,-3.6459 3.4343,-7.5847 5.2246,-11.8165c1.8229,-4.2643 3.6621,-8.7565 5.5176,-13.4765c1.8555,-4.7526 3.6947,-9.6517 5.5176,-14.6973c1.8229,-5.0456 3.597,-10.1725 5.3222,-15.3808c1.7253,-5.2409 3.3366,-10.4655 4.834,-15.6739c0.944,0.9115 1.9043,1.823 2.8809,2.7344c1.0091,0.8789 1.9857,1.7578 2.9297,2.6367c0.9765,0.8464 1.8717,1.6927 2.6855,2.5391c0.8464,0.8138 1.5788,1.5788 2.1971,2.2949zM94.5625,90.4609c2.8971,-6.0547 5.7125,-12.2233 8.4475,-18.5058c-4.7854,0.6185 -10.3355,1.2532 -16.6506,1.9043c0.8789,1.3672 1.709,2.7995 2.4902,4.2968c0.8138,1.4974 1.5625,2.9786 2.2461,4.4434c0.7161,1.4649 1.3509,2.8809 1.9043,4.2481c0.5859,1.3346 1.1068,2.539 1.5625,3.6132zM163.947,80.9883c-2.995,2.9297 -5.827,5.3874 -8.496,7.373c-2.637,1.9857 -5.159,3.5808 -7.568,4.7852c-2.409,1.2044 -4.72,2.067 -6.934,2.5879c-2.181,0.5208 -4.313,0.7812 -6.396,0.7812c-0.879,0 -1.856,-0.3255 -2.93,-0.9765c-1.074,-0.6511 -2.067,-1.4486 -2.978,-2.3926c-0.944,-0.9115 -1.726,-1.8718 -2.344,-2.8809c-0.619,-1.0091 -0.928,-1.8717 -0.928,-2.5879c0,-2.6692 0.374,-5.1106 1.123,-7.3242c0.716,-2.2461 1.677,-4.2643 2.881,-6.0547c1.204,-1.7903 2.572,-3.3691 4.102,-4.7363c1.562,-1.3672 3.173,-2.5065 4.833,-3.418c1.693,-0.9114 3.37,-1.595 5.03,-2.0507c1.66,-0.4558 3.19,-0.6836 4.59,-0.6836c1.009,0 2.002,0.2929 2.978,0.8789c1.009,0.5859 1.921,1.302 2.735,2.1484c0.813,0.8464 1.464,1.7415 1.953,2.6855c0.52,0.9115 0.781,1.709 0.781,2.3926c0,1.1068 -0.472,2.2461 -1.416,3.418c-0.912,1.1393 -2.214,2.3112 -3.906,3.5156c-1.693,1.2044 -3.728,2.4414 -6.104,3.711c-2.376,1.2369 -4.997,2.4902 -7.861,3.7597c-0.098,0.7813 -0.147,1.5462 -0.147,2.2949c0,1.0092 0.212,1.6928 0.635,2.0508c0.456,0.3581 1.286,0.5371 2.49,0.5371c2.149,0 4.167,-0.358 6.055,-1.0742c1.921,-0.7161 3.76,-1.6439 5.518,-2.7832c1.757,-1.1393 3.45,-2.4414 5.078,-3.9062c1.627,-1.4649 3.239,-2.946 4.834,-4.4434zM146.76,68.7812c-0.651,0 -1.367,0.3581 -2.149,1.0743c-0.781,0.6836 -1.562,1.595 -2.343,2.7343c-0.782,1.1394 -1.53,2.4577 -2.247,3.9551c-0.716,1.4649 -1.334,2.9948 -1.855,4.5899c1.204,-0.7813 2.376,-1.6114 3.516,-2.4903c1.172,-0.8789 2.213,-1.7903 3.125,-2.7343c0.911,-0.9766 1.644,-1.9694 2.197,-2.9786c0.553,-1.0091 0.83,-2.0182 0.83,-3.0273c0,-0.293 -0.098,-0.5534 -0.293,-0.7813c-0.163,-0.2278 -0.423,-0.3418 -0.781,-0.3418zM171.906,89.582c0.521,0 1.221,-0.2278 2.1,-0.6836c0.911,-0.4557 1.904,-1.0254 2.978,-1.7089c1.075,-0.7162 2.198,-1.4974 3.37,-2.3438c1.171,-0.8464 2.262,-1.6764 3.271,-2.4902c1.042,-0.8138 1.969,-1.5625 2.783,-2.2461c0.814,-0.6836 1.416,-1.1882 1.807,-1.5137c0.293,0.293 0.635,0.6673 1.025,1.1231c0.423,0.4557 0.814,0.8789 1.172,1.2695c-0.716,0.7161 -1.611,1.595 -2.685,2.6367c-1.075,1.0091 -2.247,2.0508 -3.516,3.125c-1.237,1.0742 -2.539,2.1484 -3.906,3.2227c-1.335,1.0742 -2.653,2.0345 -3.955,2.8808c-1.27,0.8464 -2.458,1.53 -3.565,2.0508c-1.107,0.5208 -2.034,0.7812 -2.783,0.7812c-1.009,0 -2.083,-0.358 -3.223,-1.0742c-1.106,-0.7161 -2.148,-1.5462 -3.125,-2.4902c-0.976,-0.9766 -1.806,-1.9531 -2.49,-2.9297c-0.684,-0.9766 -1.074,-1.709 -1.172,-2.1973c-0.065,-0.1953 -0.097,-0.4231 -0.097,-0.6836c0,-0.2929 0,-0.6022 0,-0.9277c0,-1.6276 0.211,-3.6784 0.634,-6.1523c0.391,-2.5065 0.928,-5.1433 1.612,-7.9102c0.683,-2.7995 1.464,-5.5664 2.343,-8.3008c0.912,-2.7669 1.856,-5.2083 2.832,-7.3242c1.986,-4.3294 4.021,-8.1706 6.104,-11.5234c2.116,-3.3529 4.183,-6.2663 6.201,-8.7403c2.018,-2.5065 3.955,-4.6061 5.811,-6.2988c1.855,-1.6927 3.515,-3.0599 4.98,-4.1016c1.498,-1.0416 2.751,-1.7903 3.76,-2.246c1.042,-0.4558 1.758,-0.6836 2.148,-0.6836c0.619,0.2278 1.237,0.5696 1.856,1.0254c0.651,0.4231 1.253,0.8789 1.806,1.3671c0.554,0.4883 1.042,0.9766 1.465,1.4649c0.423,0.4557 0.733,0.7975 0.928,1.0254c0.26,0.2604 0.423,0.5208 0.488,0.7812c0.098,0.2279 0.147,0.5371 0.147,0.9278c0,0.7812 -0.196,1.8554 -0.586,3.2226c-0.391,1.3672 -1.123,3.1087 -2.197,5.2246c-1.075,2.0834 -2.572,4.5899 -4.493,7.5196c-1.888,2.9296 -4.362,6.3476 -7.422,10.2539c-1.432,1.8229 -2.945,3.6783 -4.541,5.5664c-1.367,1.6276 -2.945,3.4017 -4.736,5.3222c-1.79,1.9206 -3.629,3.7598 -5.517,5.5176c-0.944,3.5807 -1.612,6.7383 -2.002,9.4727c-0.358,2.7343 -0.537,4.8665 -0.537,6.3965c0,1.0091 0.081,1.6601 0.244,1.9531c0.162,0.2929 0.39,0.4394 0.683,0.4394zM179.719,53.791c-0.554,1.237 -1.074,2.4414 -1.563,3.6133c-0.455,1.1719 -0.895,2.3275 -1.318,3.4668c1.009,-1.1393 1.92,-2.2298 2.734,-3.2715c0.847,-1.0417 1.563,-1.9368 2.149,-2.6855c0.683,-0.8789 1.302,-1.709 1.855,-2.4903c2.279,-3.1901 4.248,-6.1198 5.908,-8.789c1.661,-2.6693 3.028,-5.0131 4.102,-7.0313c1.074,-2.0508 1.855,-3.7435 2.344,-5.0781c0.521,-1.3672 0.781,-2.3438 0.781,-2.9297c0,-0.1628 -0.016,-0.2767 -0.049,-0.3418c0,-0.0977 -0.081,-0.1465 -0.244,-0.1465c-0.293,0 -0.96,0.4883 -2.002,1.4649c-1.042,0.944 -2.327,2.4576 -3.857,4.541c-1.498,2.0833 -3.191,4.7526 -5.079,8.0078c-1.855,3.2227 -3.776,7.1126 -5.761,11.6699zM222.053,80.9883c-2.995,2.9297 -5.827,5.3874 -8.496,7.373c-2.637,1.9857 -5.16,3.5808 -7.569,4.7852c-2.409,1.2044 -4.72,2.067 -6.933,2.5879c-2.181,0.5208 -4.313,0.7812 -6.397,0.7812c-0.879,0 -1.855,-0.3255 -2.929,-0.9765c-1.075,-0.6511 -2.068,-1.4486 -2.979,-2.3926c-0.944,-0.9115 -1.725,-1.8718 -2.344,-2.8809c-0.618,-1.0091 -0.927,-1.8717 -0.927,-2.5879c0,-2.6692 0.374,-5.1106 1.123,-7.3242c0.716,-2.2461 1.676,-4.2643 2.88,-6.0547c1.205,-1.7903 2.572,-3.3691 4.102,-4.7363c1.562,-1.3672 3.174,-2.5065 4.834,-3.418c1.693,-0.9114 3.369,-1.595 5.029,-2.0507c1.66,-0.4558 3.19,-0.6836 4.59,-0.6836c1.009,0 2.002,0.2929 2.979,0.8789c1.009,0.5859 1.92,1.302 2.734,2.1484c0.814,0.8464 1.465,1.7415 1.953,2.6855c0.521,0.9115 0.781,1.709 0.781,2.3926c0,1.1068 -0.472,2.2461 -1.416,3.418c-0.911,1.1393 -2.213,2.3112 -3.906,3.5156c-1.693,1.2044 -3.727,2.4414 -6.103,3.711c-2.377,1.2369 -4.997,2.4902 -7.862,3.7597c-0.097,0.7813 -0.146,1.5462 -0.146,2.2949c0,1.0092 0.211,1.6928 0.635,2.0508c0.455,0.3581 1.285,0.5371 2.49,0.5371c2.148,0 4.166,-0.358 6.054,-1.0742c1.921,-0.7161 3.76,-1.6439 5.518,-2.7832c1.758,-1.1393 3.451,-2.4414 5.078,-3.9062c1.628,-1.4649 3.239,-2.946 4.834,-4.4434zM204.865,68.7812c-0.651,0 -1.367,0.3581 -2.148,1.0743c-0.781,0.6836 -1.563,1.595 -2.344,2.7343c-0.781,1.1394 -1.53,2.4577 -2.246,3.9551c-0.716,1.4649 -1.335,2.9948 -1.856,4.5899c1.205,-0.7813 2.377,-1.6114 3.516,-2.4903c1.172,-0.8789 2.214,-1.7903 3.125,-2.7343c0.912,-0.9766 1.644,-1.9694 2.197,-2.9786c0.554,-1.0091 0.83,-2.0182 0.83,-3.0273c0,-0.293 -0.097,-0.5534 -0.293,-0.7813c-0.162,-0.2278 -0.423,-0.3418 -0.781,-0.3418zM253.596,80.9883c-2.995,2.9297 -5.827,5.3874 -8.496,7.373c-2.637,1.9857 -5.16,3.5808 -7.569,4.7852c-2.409,1.2044 -4.72,2.067 -6.933,2.5879c-2.181,0.5208 -4.313,0.7812 -6.397,0.7812c-0.879,0 -1.855,-0.3255 -2.93,-0.9765c-1.074,-0.6511 -2.067,-1.4486 -2.978,-2.3926c-0.944,-0.9115 -1.725,-1.8718 -2.344,-2.8809c-0.618,-1.0091 -0.928,-1.8717 -0.928,-2.5879c0,-2.6692 0.375,-5.1106 1.124,-7.3242c0.716,-2.2461 1.676,-4.2643 2.88,-6.0547c1.205,-1.7903 2.572,-3.3691 4.102,-4.7363c1.562,-1.3672 3.174,-2.5065 4.834,-3.418c1.693,-0.9114 3.369,-1.595 5.029,-2.0507c1.66,-0.4558 3.19,-0.6836 4.59,-0.6836c1.009,0 2.002,0.2929 2.979,0.8789c1.009,0.5859 1.92,1.302 2.734,2.1484c0.814,0.8464 1.465,1.7415 1.953,2.6855c0.521,0.9115 0.781,1.709 0.781,2.3926c0,1.1068 -0.472,2.2461 -1.416,3.418c-0.911,1.1393 -2.213,2.3112 -3.906,3.5156c-1.693,1.2044 -3.727,2.4414 -6.103,3.711c-2.377,1.2369 -4.997,2.4902 -7.862,3.7597c-0.097,0.7813 -0.146,1.5462 -0.146,2.2949c0,1.0092 0.211,1.6928 0.635,2.0508c0.455,0.3581 1.285,0.5371 2.49,0.5371c2.148,0 4.166,-0.358 6.054,-1.0742c1.921,-0.7161 3.76,-1.6439 5.518,-2.7832c1.758,-1.1393 3.451,-2.4414 5.078,-3.9062c1.628,-1.4649 3.239,-2.946 4.834,-4.4434zM236.408,68.7812c-0.651,0 -1.367,0.3581 -2.148,1.0743c-0.781,0.6836 -1.563,1.595 -2.344,2.7343c-0.781,1.1394 -1.53,2.4577 -2.246,3.9551c-0.716,1.4649 -1.335,2.9948 -1.856,4.5899c1.205,-0.7813 2.377,-1.6114 3.516,-2.4903c1.172,-0.8789 2.214,-1.7903 3.125,-2.7343c0.912,-0.9766 1.644,-1.9694 2.197,-2.9786c0.554,-1.0091 0.83,-2.0182 0.83,-3.0273c0,-0.293 -0.097,-0.5534 -0.293,-0.7813c-0.162,-0.2278 -0.423,-0.3418 -0.781,-0.3418zM265.07,69.416c-0.39,1.0417 -0.781,2.0996 -1.172,3.1738c-0.39,1.0743 -0.781,2.181 -1.171,3.3204c2.05,-2.3438 3.808,-4.2481 5.273,-5.7129c1.497,-1.4974 2.751,-2.6693 3.76,-3.5157c1.041,-0.8463 1.872,-1.416 2.49,-1.7089c0.651,-0.3256 1.156,-0.4883 1.514,-0.4883c0.423,0 1.058,0.2116 1.904,0.6347c0.846,0.4232 1.693,0.9441 2.539,1.5625c0.879,0.6185 1.628,1.2533 2.246,1.9043c0.651,0.6511 0.977,1.2207 0.977,1.709c0,0.0977 -0.017,0.2279 -0.049,0.3906c-0.033,0.1303 -0.082,0.3093 -0.147,0.5372c-0.26,0.8138 -0.602,1.774 -1.025,2.8808c-0.391,1.1068 -0.814,2.2624 -1.27,3.4668c-0.455,1.1719 -0.911,2.36 -1.367,3.5645c-0.455,1.1718 -0.862,2.2786 -1.22,3.3203c-0.359,1.0416 -0.651,1.9531 -0.879,2.7344c-0.228,0.7812 -0.342,1.3509 -0.342,1.7089c0,0.1954 0.098,0.293 0.293,0.293c0.358,0 0.895,-0.2116 1.611,-0.6348c0.716,-0.4231 1.53,-0.9765 2.442,-1.6601c0.944,-0.6836 1.92,-1.4323 2.929,-2.2461c1.009,-0.8138 1.97,-1.6113 2.881,-2.3926c0.944,-0.8138 1.79,-1.5462 2.539,-2.1973c0.749,-0.651 1.319,-1.1393 1.709,-1.4648c0.326,0.293 0.684,0.6673 1.074,1.1231c0.391,0.4557 0.765,0.8789 1.123,1.2695c-0.716,0.7161 -1.611,1.595 -2.685,2.6367c-1.074,1.0091 -2.246,2.0508 -3.516,3.125c-1.237,1.0742 -2.539,2.1484 -3.906,3.2227c-1.335,1.0742 -2.637,2.0345 -3.906,2.8808c-1.27,0.8464 -2.458,1.53 -3.565,2.0508c-1.106,0.5208 -2.034,0.7812 -2.783,0.7812c-0.488,0 -1.107,-0.179 -1.855,-0.5371c-0.749,-0.3255 -1.481,-0.7487 -2.198,-1.2695c-0.683,-0.4883 -1.269,-1.0417 -1.757,-1.6601c-0.489,-0.6185 -0.733,-1.2208 -0.733,-1.8067c0.293,-1.3346 0.684,-2.8483 1.172,-4.541c0.521,-1.6927 1.074,-3.418 1.66,-5.1758c0.586,-1.7904 1.188,-3.5482 1.807,-5.2734c0.651,-1.7578 1.269,-3.3692 1.855,-4.834l-0.097,0.0976c-0.619,0.7487 -1.514,1.7416 -2.686,2.9786c-1.139,1.2044 -2.441,2.7669 -3.906,4.6875c-1.465,1.888 -3.011,4.1829 -4.639,6.8847c-1.627,2.6693 -3.223,5.8431 -4.785,9.5215c-0.195,0.4557 -0.374,0.8138 -0.537,1.0742c-0.163,0.2604 -0.472,0.3907 -0.928,0.3907c-0.553,0 -1.188,-0.1628 -1.904,-0.4883c-0.684,-0.293 -1.384,-0.6999 -2.1,-1.2207c-0.748,-0.4883 -1.481,-1.0417 -2.197,-1.6602c-0.749,-0.6185 -1.416,-1.237 -2.002,-1.8555c0,-0.1953 0.098,-0.7487 0.293,-1.6601c0.163,-0.9115 0.407,-2.0508 0.732,-3.418c0.326,-1.3997 0.733,-2.9785 1.221,-4.7363c0.488,-1.7904 1.042,-3.6621 1.66,-5.6152c0.619,-1.9532 1.302,-3.9388 2.051,-5.9571c0.716,-2.0508 1.497,-4.0202 2.344,-5.9082c1.367,0.6511 2.881,1.4486 4.541,2.3926c1.693,0.944 3.255,2.0508 4.687,3.3203zM318.977,88.7031c0,0.1953 0.097,0.293 0.293,0.293c0.292,0 0.781,-0.2116 1.464,-0.6348c0.684,-0.4231 1.465,-0.9603 2.344,-1.6113c0.879,-0.651 1.807,-1.3835 2.783,-2.1973c1.009,-0.8138 1.97,-1.6113 2.881,-2.3925c0.912,-0.7813 1.725,-1.4974 2.442,-2.1485c0.748,-0.651 1.318,-1.1556 1.709,-1.5137c0.293,0.293 0.651,0.6836 1.074,1.1719c0.456,0.4883 0.862,0.9278 1.221,1.3184c-0.782,0.7161 -1.726,1.595 -2.833,2.6367c-1.074,1.0091 -2.246,2.0671 -3.515,3.1738c-1.237,1.1068 -2.523,2.2136 -3.858,3.3203c-1.334,1.0743 -2.636,2.0345 -3.906,2.8809c-1.269,0.8464 -2.474,1.5299 -3.613,2.0508c-1.139,0.5534 -2.132,0.8301 -2.979,0.8301c-0.586,0 -1.237,-0.114 -1.953,-0.3418c-0.683,-0.2279 -1.318,-0.5534 -1.904,-0.9766c-0.586,-0.3906 -1.074,-0.8626 -1.465,-1.416c-0.391,-0.5534 -0.586,-1.1719 -0.586,-1.8555c0,-0.2604 -0.016,-0.5696 -0.049,-0.9277c0,-0.3906 0.033,-0.8789 0.098,-1.4649c0.065,-0.6185 0.195,-1.3509 0.391,-2.1972c0.195,-0.8789 0.488,-1.9532 0.879,-3.2227c-1.075,1.1393 -2.344,2.3275 -3.809,3.5645c-1.432,1.2369 -2.946,2.4088 -4.541,3.5156c-1.595,1.1068 -3.206,2.0996 -4.834,2.9785c-1.595,0.9115 -3.076,1.5951 -4.443,2.0508c-0.163,0.0651 -0.293,0.0976 -0.391,0.0976c-0.098,0 -0.195,0 -0.293,0c-0.326,0 -0.749,-0.1627 -1.27,-0.4882c-0.553,-0.3256 -1.09,-0.765 -1.611,-1.3184c-0.521,-0.5208 -0.96,-1.123 -1.318,-1.8066c-0.391,-0.6836 -0.586,-1.3672 -0.586,-2.0508c0,-0.1953 0.097,-0.8464 0.293,-1.9531c0.195,-1.1068 0.667,-2.5066 1.416,-4.1993c0.716,-1.7252 1.79,-3.6458 3.222,-5.7617c1.433,-2.1484 3.386,-4.3457 5.86,-6.5918c1.269,-1.1393 2.637,-2.2135 4.101,-3.2226c1.237,-0.8464 2.653,-1.709 4.248,-2.5879c1.596,-0.8789 3.272,-1.5788 5.03,-2.0996c0.065,0 0.114,-0.0163 0.146,-0.0489c0.065,-0.0325 0.147,-0.0162 0.244,0.0489c0.391,0.1302 0.847,0.3418 1.368,0.6347c0.553,0.2605 1.09,0.5534 1.611,0.8789c0.553,0.293 1.025,0.6023 1.416,0.9278c0.423,0.2929 0.7,0.5371 0.83,0.7324c0.033,0.0651 0.033,0.1139 0,0.1465l-0.098,0.0976c-1.465,0.7813 -2.848,1.6602 -4.15,2.6368c-1.302,0.944 -2.458,1.8391 -3.467,2.6855c-1.172,1.0091 -2.262,2.002 -3.271,2.9785c-2.377,2.3438 -4.021,4.3783 -4.932,6.1035c-0.911,1.6927 -1.367,2.9134 -1.367,3.6621c0,0.5534 0.228,0.8301 0.683,0.8301c0.456,0 1.026,-0.179 1.709,-0.5371c0.717,-0.3906 1.514,-0.8952 2.393,-1.5137c0.879,-0.651 1.839,-1.3997 2.881,-2.2461c1.074,-0.8789 2.181,-1.7903 3.32,-2.7343c1.009,-0.8138 1.986,-1.6927 2.93,-2.6367c0.814,-0.7813 1.66,-1.6765 2.539,-2.6856c0.879,-1.0091 1.628,-2.0345 2.246,-3.0762c0,-0.0325 0.016,-0.0651 0.049,-0.0976c0.032,-0.0326 0.081,-0.0326 0.146,0c0.358,0.2604 0.765,0.6998 1.221,1.3183c0.456,0.586 0.879,1.237 1.27,1.9532c0.39,0.7161 0.716,1.416 0.976,2.0996c0.293,0.651 0.44,1.1556 0.44,1.5136c-0.749,1.53 -1.335,2.9297 -1.758,4.1993c-0.391,1.2369 -0.7,2.3274 -0.928,3.2714c-0.195,0.9441 -0.326,1.7579 -0.391,2.4415c-0.032,0.651 -0.048,1.1556 -0.048,1.5136zM360.578,107.502c-0.13,0.586 -0.325,1.269 -0.586,2.051c-0.228,0.781 -0.488,1.546 -0.781,2.295c-0.26,0.781 -0.537,1.497 -0.83,2.148c-0.261,0.651 -0.488,1.123 -0.684,1.416c-0.39,0 -1.497,0 -3.32,0c-1.79,0.033 -3.955,0.049 -6.494,0.049c-2.507,0.032 -5.192,0.065 -8.057,0.098c-2.832,0.032 -5.469,0.048 -7.91,0.048c-2.474,0 -4.541,-0.016 -6.201,-0.048c-1.693,-0.033 -2.637,-0.082 -2.832,-0.147c0.097,-0.391 0.26,-0.944 0.488,-1.66c0.228,-0.684 0.472,-1.4 0.733,-2.148c0.26,-0.749 0.537,-1.449 0.83,-2.1c0.26,-0.651 0.472,-1.123 0.634,-1.416c0.196,-0.065 0.83,-0.13 1.905,-0.195c1.041,-0.066 2.376,-0.114 4.004,-0.147c1.627,-0.032 3.45,-0.065 5.468,-0.098c2.019,-0.032 4.069,-0.065 6.153,-0.097c2.116,0 4.183,-0.016 6.201,-0.049c2.018,0 3.825,0 5.42,0c1.627,0 2.962,0 4.004,0c1.074,0 1.692,0 1.855,0zM460.09,72.7852c-0.423,1.2695 -0.96,2.7181 -1.611,4.3457c-0.619,1.6276 -1.221,3.2226 -1.807,4.7851c-0.586,1.5625 -1.091,2.9785 -1.514,4.2481c-0.39,1.2695 -0.586,2.181 -0.586,2.7343c0,0.1954 0.098,0.293 0.293,0.293c0.358,0 0.895,-0.2116 1.612,-0.6348c0.716,-0.4231 1.53,-0.9765 2.441,-1.6601c0.944,-0.6836 1.921,-1.4323 2.93,-2.2461c1.009,-0.8138 1.969,-1.6113 2.881,-2.3926c0.944,-0.8138 1.79,-1.5462 2.539,-2.1973c0.748,-0.651 1.318,-1.1393 1.709,-1.4648c0.293,0.293 0.634,0.6673 1.025,1.1231c0.423,0.4557 0.814,0.8789 1.172,1.2695c-0.716,0.7161 -1.612,1.595 -2.686,2.6367c-1.074,1.0091 -2.246,2.0508 -3.515,3.125c-1.237,1.0742 -2.539,2.1484 -3.907,3.2227c-1.334,1.0742 -2.653,2.0345 -3.955,2.8808c-1.269,0.8464 -2.457,1.53 -3.564,2.0508c-1.107,0.5208 -2.035,0.7812 -2.783,0.7812c-0.489,0 -1.107,-0.179 -1.856,-0.5371c-0.748,-0.3255 -1.465,-0.7487 -2.148,-1.2695c-0.684,-0.4883 -1.27,-1.0417 -1.758,-1.6601c-0.488,-0.6185 -0.732,-1.2208 -0.732,-1.8067c0.488,-2.181 0.976,-4.0853 1.464,-5.7129c0.489,-1.6276 0.944,-3.011 1.368,-4.1504c0.423,-1.1718 0.797,-2.1159 1.123,-2.832c0.325,-0.7161 0.569,-1.2533 0.732,-1.6113c-0.391,-0.1628 -0.765,-0.3418 -1.123,-0.5371c-0.358,-0.1954 -0.716,-0.3907 -1.074,-0.586c-0.521,0.5534 -1.107,1.1393 -1.758,1.7578c-0.619,0.6185 -1.253,1.237 -1.904,1.8555c-0.651,0.6185 -1.302,1.2207 -1.953,1.8066c-0.652,0.586 -1.237,1.1231 -1.758,1.6114l-2.344,-2.3926c0.846,-0.8138 1.872,-1.7904 3.076,-2.9297c1.172,-1.1719 2.328,-2.3437 3.467,-3.5156c-0.814,-0.4883 -1.546,-0.944 -2.197,-1.3672c-0.651,-0.4557 -1.205,-0.8626 -1.66,-1.2207c-0.554,-0.3906 -1.042,-0.7487 -1.465,-1.0742c-0.196,-0.0977 -0.293,-0.3093 -0.293,-0.6348c0,-0.3581 0.146,-0.8626 0.439,-1.5137c0.261,-0.6836 0.602,-1.3997 1.026,-2.1484c0.423,-0.7813 0.878,-1.5625 1.367,-2.3438c0.488,-0.8138 0.96,-1.5462 1.416,-2.1972c0.455,-0.6511 0.846,-1.1719 1.172,-1.5625c0.358,-0.4232 0.586,-0.6348 0.683,-0.6348c0.065,0 0.277,0.0814 0.635,0.2442c0.391,0.1627 0.798,0.358 1.221,0.5859c0.423,0.1953 0.813,0.4232 1.172,0.6836c0.358,0.2604 0.586,0.4883 0.683,0.6836c0.033,0.1627 0.065,0.5045 0.098,1.0254c0.032,0.5208 0.065,1.1556 0.097,1.9043c1.27,0.651 2.572,1.3997 3.907,2.2461c1.334,0.8138 2.555,1.595 3.662,2.3437c1.302,0.8464 2.539,1.709 3.711,2.5879c0.423,0.2604 0.683,0.5859 0.781,0.9766c0.13,0.3906 0.147,0.7324 0.049,1.0254zM472.102,95.6855c-0.489,0 -1.107,-0.179 -1.856,-0.5371c-0.749,-0.3255 -1.465,-0.7487 -2.148,-1.2695c-0.684,-0.4883 -1.27,-1.0417 -1.758,-1.6601c-0.488,-0.6185 -0.733,-1.2208 -0.733,-1.8067c0.326,-1.4323 0.765,-3.0762 1.319,-4.9316c0.553,-1.8555 1.155,-3.7435 1.806,-5.6641c0.619,-1.9206 1.286,-3.7923 2.002,-5.6152c0.684,-1.8555 1.302,-3.4994 1.856,-4.9317c0.586,-1.4323 1.09,-2.5879 1.514,-3.4668c0.423,-0.8789 0.699,-1.3183 0.83,-1.3183c0.195,0 0.683,0.2116 1.464,0.6347c0.782,0.4232 1.595,0.9441 2.442,1.5625c0.879,0.586 1.66,1.2207 2.344,1.9043c0.683,0.6511 1.025,1.2207 1.025,1.709c0,0.0977 -0.016,0.2279 -0.049,0.3906c-0.032,0.1303 -0.081,0.3093 -0.146,0.5372c-0.261,0.8138 -0.603,1.774 -1.026,2.8808c-0.39,1.1068 -0.814,2.2624 -1.269,3.4668c-0.456,1.1719 -0.912,2.36 -1.367,3.5645c-0.456,1.1718 -0.863,2.2786 -1.221,3.3203c-0.358,1.0416 -0.651,1.9531 -0.879,2.7344c-0.228,0.7812 -0.342,1.3509 -0.342,1.7089c0,0.1954 0.098,0.293 0.293,0.293c0.358,0 0.895,-0.2116 1.611,-0.6348c0.717,-0.4231 1.53,-0.9765 2.442,-1.6601c0.944,-0.6836 1.92,-1.4323 2.93,-2.2461c1.009,-0.8138 1.969,-1.6113 2.88,-2.3926c0.944,-0.8138 1.791,-1.5462 2.539,-2.1973c0.749,-0.651 1.319,-1.1393 1.709,-1.4648c0.293,0.293 0.635,0.6673 1.026,1.1231c0.423,0.4557 0.814,0.8789 1.172,1.2695c-0.716,0.7161 -1.612,1.595 -2.686,2.6367c-1.074,1.0091 -2.246,2.0508 -3.515,3.125c-1.237,1.0742 -2.54,2.1484 -3.907,3.2227c-1.334,1.0742 -2.636,2.0345 -3.906,2.8808c-1.269,0.8464 -2.458,1.53 -3.564,2.0508c-1.107,0.5208 -2.051,0.7812 -2.832,0.7812zM491.438,49.5918c-0.033,0.1302 -0.163,0.4557 -0.391,0.9766c-0.195,0.4882 -0.44,1.0742 -0.733,1.7578c-0.293,0.651 -0.634,1.3509 -1.025,2.0996c-0.358,0.7161 -0.716,1.3834 -1.074,2.0019c-0.358,0.6185 -0.7,1.1394 -1.026,1.5625c-0.325,0.3907 -0.585,0.586 -0.781,0.586c-0.586,-0.0326 -1.302,-0.2116 -2.148,-0.5371c-0.814,-0.3256 -1.612,-0.6836 -2.393,-1.0743c-0.749,-0.4231 -1.4,-0.83 -1.953,-1.2207c-0.521,-0.3906 -0.781,-0.6673 -0.781,-0.83c0,-0.6836 0.195,-1.5625 0.586,-2.6368c0.39,-1.1067 0.846,-2.1647 1.367,-3.1738c0.521,-1.0417 1.042,-1.9368 1.562,-2.6855c0.554,-0.7487 0.977,-1.1231 1.27,-1.1231c0.586,0 1.302,0.1953 2.148,0.586c0.847,0.358 1.661,0.7812 2.442,1.2695c0.814,0.4883 1.497,0.9766 2.051,1.4648c0.586,0.4558 0.879,0.7813 0.879,0.9766zM500.568,74.9824c1.758,-2.181 3.37,-3.9713 4.834,-5.3711c1.465,-1.4323 2.751,-2.5553 3.858,-3.3691c1.139,-0.8464 2.099,-1.4323 2.881,-1.7578c0.781,-0.3255 1.367,-0.4883 1.757,-0.4883c0.521,0 1.091,0.1953 1.709,0.5859c0.619,0.3907 1.221,0.8627 1.807,1.416c0.619,0.5534 1.188,1.1231 1.709,1.709c0.521,0.586 0.96,1.058 1.318,1.416c0.358,0.3581 0.57,0.7487 0.635,1.1719c0.098,0.3906 0.147,0.7975 0.147,1.2207c0,1.53 -0.261,3.2064 -0.782,5.0293c-0.52,1.7904 -1.204,3.5808 -2.05,5.3711c-0.847,1.7578 -1.807,3.4343 -2.881,5.0293c-1.074,1.5951 -2.165,2.946 -3.272,4.0527c0.944,-0.3906 1.905,-0.8626 2.881,-1.416c1.009,-0.5859 2.002,-1.2044 2.979,-1.8554c0.976,-0.6511 1.937,-1.3184 2.881,-2.002c0.944,-0.7161 1.839,-1.416 2.685,-2.0996c1.986,-1.5625 3.906,-3.2389 5.762,-5.0293l2.197,2.3926c-1.074,1.0091 -2.279,2.0833 -3.613,3.2226c-1.302,1.1394 -2.67,2.2624 -4.102,3.3692c-1.432,1.1067 -2.897,2.1647 -4.394,3.1738c-1.465,1.0091 -2.881,1.9043 -4.248,2.6856c-1.368,0.7812 -2.637,1.3997 -3.809,1.8554c-1.172,0.4558 -2.181,0.6836 -3.027,0.6836c-0.586,0 -1.319,-0.179 -2.198,-0.5371c-0.878,-0.3255 -1.741,-0.7324 -2.587,-1.2207c-0.814,-0.4883 -1.53,-1.0091 -2.149,-1.5625c-0.586,-0.5859 -0.879,-1.1068 -0.879,-1.5625c0,-0.2604 0.163,-0.4883 0.488,-0.6836c0.359,-0.2279 0.863,-0.6185 1.514,-1.1719c0.651,-0.5534 1.432,-1.3834 2.344,-2.4902c0.911,-1.1068 1.937,-2.7181 3.076,-4.834c0.619,-1.1719 1.204,-2.3763 1.758,-3.6133c0.553,-1.2695 1.042,-2.4414 1.465,-3.5156c0.423,-1.1068 0.748,-2.0508 0.976,-2.832c0.261,-0.8138 0.391,-1.3672 0.391,-1.6602c0,-0.2929 -0.049,-0.4883 -0.147,-0.5859c-0.065,-0.1302 -0.13,-0.2279 -0.195,-0.293c-0.13,-0.0325 -0.244,-0.0325 -0.342,0c-0.455,0.1302 -1.383,0.8626 -2.783,2.1973c-1.367,1.3021 -2.978,3.1901 -4.834,5.664c-1.855,2.4415 -3.825,5.4362 -5.908,8.9844c-2.083,3.5156 -4.053,7.5358 -5.908,12.0606c-1.53,4.3617 -3.06,8.7727 -4.59,13.2327c-1.53,4.459 -3.027,8.903 -4.492,13.33l-12.403,2.929c1.888,-5.371 3.858,-10.709 5.909,-16.015c2.018,-5.274 4.036,-10.563 6.054,-15.8693c1.986,-5.2735 3.955,-10.5632 5.908,-15.8692c1.921,-5.3059 3.76,-10.6282 5.518,-15.9667c0.098,-0.3581 0.179,-0.6023 0.244,-0.7325c0.098,-0.1627 0.277,-0.2441 0.537,-0.2441c0.521,0.1627 1.156,0.472 1.905,0.9277c0.748,0.4232 1.481,0.9278 2.197,1.5137c0.749,0.5534 1.416,1.123 2.002,1.709c0.586,0.5859 0.993,1.0905 1.22,1.5136c0.066,0.0977 0.049,0.2767 -0.048,0.5372c-0.065,0.2278 -0.147,0.4882 -0.244,0.7812z"></path><path d="M392.341,104.813l21.675,-29.5725l15.173,26.1885l5.727,-10.2714l-8.253,-35.3544l9.768,-18.7221c0,0 5.811,-10.4877 2.087,-13.039l-0.076,-0.0485c-3.895,-2.2825 -10.909,7.4419 -10.909,7.4419l-12.779,16.8114l-35.503,7.5916l-6.854,9.5555l30.157,2.5749l-17.525,32.2061l-11.858,2.404l-2.8,4.408l22.049,13.991l2.796,-4.411z"></path></g></g></svg>