<svg version="1.1" xmlns="http://www.w3.org/2000/svg" xmlns:xlink="http://www.w3.org/1999/xlink" width="800px" height="800px" viewBox="0,0,256,256"><g fill="#ff597a" fill-rule="nonzero" stroke="none" stroke-width="1" stroke-linecap="butt" stroke-linejoin="miter" stroke-miterlimit="10" stroke-dasharray="" stroke-dashoffset="0" font-family="none" font-weight="none" font-size="none" text-anchor="none" style="mix-blend-mode: normal"><g transform="scale(4,4)"><g><path d="M62.242,47.758l0.014,-0.014c-5.847,-4.753 -12.84,-8.137 -20.491,-9.722c2.609,-2.543 4.235,-6.09 4.235,-10.022c1.657,0 3,-1.343 3,-3v-2c0,-0.886 -0.391,-1.673 -1,-2.222v-8.778c0,-6.627 -5.373,-12 -12,-12h-8c-6.627,0 -12,5.373 -12,12v8.778c-0.609,0.549 -1,1.336 -1,2.222v2c0,1.657 1.343,3 3,3c0,3.932 1.626,7.479 4.236,10.022c-7.652,1.586 -14.646,4.969 -20.492,9.722l0.014,0.014c-1.086,1.086 -1.758,2.586 -1.758,4.242v8c0,2.211 1.789,4 4,4h56c2.211,0 4,-1.789 4,-4v-8c0,-1.656 -0.672,-3.156 -1.758,-4.242zM20,28v-1c0,-0.553 -0.447,-1 -1,-1h-1c-0.553,0 -1,-0.447 -1,-1v-2c0,-0.553 0.447,-1 1,-1h1c0.553,0 1,-0.447 1,-1v-1v-1c0,-2.209 1.791,-4 4,-4c2.088,0 3.926,-1.068 5,-2.687c1.074,1.619 2.912,2.687 5,2.687h6c2.209,0 4,1.791 4,4v1v1c0,0.553 0.447,1 1,1h1c0.553,0 1,0.447 1,1v2c0,0.553 -0.447,1 -1,1h-1c-0.553,0 -1,0.447 -1,1v1c0,6.627 -5.373,12 -12,12c-6.627,0 -12,-5.373 -12,-12zM24.285,39.678c2.213,1.465 4.862,2.322 7.715,2.322c2.853,0 5.502,-0.857 7.715,-2.322c1.66,0.281 3.297,0.63 4.892,1.084c-3.252,3.221 -7.696,5.238 -12.634,5.238c-4.932,0 -9.371,-2.011 -12.621,-5.226c1.608,-0.459 3.258,-0.813 4.933,-1.096z"></path><path d="M24.537,21.862c0.475,0.255 1.073,0.068 1.345,-0.396c0.028,-0.047 0.298,-0.466 1.116,-0.466c0.808,0 1.096,0.436 1.111,0.458c0.178,0.345 0.528,0.542 0.89,0.542c0.154,0 0.311,-0.035 0.457,-0.111c0.491,-0.253 0.684,-0.856 0.431,-1.347c-0.295,-0.573 -1.236,-1.542 -2.889,-1.542c-1.691,0 -2.618,0.983 -2.9,1.564c-0.234,0.483 -0.035,1.045 0.439,1.298z"></path><path d="M34.539,21.862c0.475,0.255 1.073,0.068 1.345,-0.396c0.028,-0.047 0.298,-0.466 1.116,-0.466c0.808,0 1.096,0.436 1.111,0.458c0.178,0.345 0.528,0.542 0.89,0.542c0.154,0 0.311,-0.035 0.457,-0.111c0.491,-0.253 0.684,-0.856 0.431,-1.347c-0.295,-0.573 -1.236,-1.542 -2.889,-1.542c-1.691,0 -2.618,0.983 -2.9,1.564c-0.234,0.483 -0.035,1.045 0.439,1.298z"></path></g></g></g></svg>