<svg version="1.1" xmlns="http://www.w3.org/2000/svg" xmlns:xlink="http://www.w3.org/1999/xlink" width="800px" height="800px" viewBox="0,0,256,256"><g fill="#ff597a" fill-rule="nonzero" stroke="none" stroke-width="1" stroke-linecap="butt" stroke-linejoin="miter" stroke-miterlimit="10" stroke-dasharray="" stroke-dashoffset="0" font-family="none" font-weight="none" font-size="none" text-anchor="none" style="mix-blend-mode: normal"><g transform="scale(0.5,0.5)"><g><path d="M341.601,0h-171.202c-29.292,0 -53.121,23.828 -53.121,53.121v405.756c0,29.292 23.83,53.123 53.121,53.123h171.202c29.292,0 53.121,-23.83 53.121,-53.119v-405.76c0,-29.293 -23.829,-53.121 -53.121,-53.121zM234.91,453.434c0,-0.536 0.452,-0.988 0.988,-0.988h40.202c0.536,0 0.988,0.452 0.988,0.988v13.684c0,0.536 -0.452,0.988 -0.988,0.988h-40.202c-0.536,0 -0.988,-0.452 -0.988,-0.988zM277.088,429.684c0,0.536 -0.452,0.988 -0.988,0.988h-40.202c-0.536,0 -0.988,-0.452 -0.988,-0.988v-13.684c0,-0.534 0.452,-0.984 0.988,-0.984h40.202c0.536,0 0.988,0.45 0.988,0.984zM277.088,392.25c0,0.545 -0.443,0.988 -0.988,0.988h-40.202c-0.546,0 -0.988,-0.442 -0.988,-0.988v-13.68c0,-0.536 0.452,-0.988 0.988,-0.988h40.202c0.536,0 0.988,0.452 0.988,0.988zM255.999,351.476c-13.461,0 -24.414,-10.951 -24.414,-24.412c0,-13.462 10.953,-24.416 24.414,-24.416c13.463,0 24.416,10.953 24.416,24.416c0,13.46 -10.953,24.412 -24.416,24.412zM170.397,36.304h171.202c10.004,0 18.142,8.137 18.142,18.144v225.136h-207.484v-225.135c0,-10.008 8.138,-18.145 18.14,-18.145zM211.35,315.983v22.162h-43.742l-13.906,-22.162zM203.025,429.684c0,0.536 -0.452,0.988 -0.986,0.988h-40.204c-0.534,0 -0.986,-0.452 -0.986,-0.988v-13.684c0,-0.542 0.443,-0.984 0.986,-0.984h40.204c0.544,0 0.986,0.443 0.986,0.984zM203.025,392.25c0,0.545 -0.442,0.988 -0.986,0.988h-40.204c-0.543,0 -0.986,-0.442 -0.986,-0.988v-13.68c0,-0.536 0.452,-0.988 0.986,-0.988h40.204c0.534,0 0.986,0.452 0.986,0.988zM160.849,467.118v-13.684c0,-0.536 0.452,-0.988 0.986,-0.988h40.204c0.534,0 0.986,0.452 0.986,0.988v13.684c0,0.536 -0.452,0.988 -0.986,0.988h-40.204c-0.533,0 -0.986,-0.452 -0.986,-0.988zM358.295,315.983l-13.905,22.162h-43.742v-22.162zM351.151,429.684c0,0.536 -0.452,0.988 -0.988,0.988h-40.202c-0.536,0 -0.988,-0.452 -0.988,-0.988v-13.684c0,-0.542 0.443,-0.984 0.988,-0.984h40.202c0.546,0 0.988,0.443 0.988,0.984zM351.151,392.25c0,0.545 -0.442,0.988 -0.988,0.988h-40.202c-0.545,0 -0.988,-0.442 -0.988,-0.988v-13.68c0,-0.536 0.452,-0.988 0.988,-0.988h40.202c0.536,0 0.988,0.452 0.988,0.988zM308.973,467.118v-13.684c0,-0.536 0.452,-0.988 0.988,-0.988h40.202c0.536,0 0.988,0.452 0.988,0.988v13.684c0,0.536 -0.452,0.988 -0.988,0.988h-40.202c-0.536,0 -0.988,-0.452 -0.988,-0.988z"></path></g></g></g></svg>