<svg version="1.1" xmlns="http://www.w3.org/2000/svg" xmlns:xlink="http://www.w3.org/1999/xlink" width="800px" height="800px" viewBox="0,0,256,256"><g fill="none" fill-rule="none" stroke="none" stroke-width="none" stroke-linecap="none" stroke-linejoin="none" stroke-miterlimit="10" stroke-dasharray="" stroke-dashoffset="0" font-family="none" font-weight="none" font-size="none" text-anchor="none" style="mix-blend-mode: normal"><g transform="translate(3.1916,-5.33333) scale(10.66667,10.66667)"><path d="M11.7255,17.1019c-0.099,-0.2175 -0.304,-0.3762 -0.5521,-0.4044c-0.2101,-0.024 -0.4158,-0.069 -0.6114,-0.1339c-0.0877,-0.0295 -0.17,-0.0617 -0.2462,-0.0962l0.1266,-0.3451c0.0894,0.0399 0.1815,0.0764 0.2758,0.1094l0.0039,0.0014l0.004,0.0013c0.3026,0.1 0.6004,0.1507 0.8849,0.1507c0.2857,0 0.4928,-0.0383 0.6519,-0.1204l0.0095,-0.0049l0.0093,-0.0054c0.241,-0.1383 0.3793,-0.376 0.3793,-0.6523c0,-0.3066 -0.1654,-0.5611 -0.4539,-0.6986c-0.1451,-0.0706 -0.3512,-0.138 -0.6481,-0.2118c-0.3045,-0.077 -0.5603,-0.1587 -0.7587,-0.2424c-0.145,-0.0656 -0.2708,-0.1703 -0.3842,-0.32c-0.0976,-0.1336 -0.147,-0.3345 -0.147,-0.5974c0,-0.3172 0.0893,-0.579 0.2731,-0.8004c0.1636,-0.194 0.3959,-0.3258 0.7077,-0.3997c0.2313,-0.0548 0.4117,-0.2199 0.4928,-0.4331c0.0917,0.2161 0.2868,0.3768 0.5296,0.4155c0.2028,0.0323 0.389,0.0838 0.5564,0.1535l-0.1165,0.3382c-0.3161,-0.1269 -0.6272,-0.191 -0.9281,-0.191c-0.9993,0 -1.0499,0.6894 -1.0499,0.8276c0,0.2996 0.1618,0.5508 0.4439,0.6893l0.0079,0.0039l0.008,0.0036c0.1425,0.0636 0.3447,0.1249 0.6365,0.1929c0.3017,0.0682 0.5533,0.1463 0.751,0.2329l0.0041,0.0018l0.0041,0.0017c0.1468,0.0611 0.2727,0.1631 0.3849,0.3119l0.0018,0.0023l0.0018,0.0024c0.0981,0.1268 0.1479,0.3229 0.1479,0.5829c0,0.3001 -0.0869,0.5541 -0.2657,0.7766c-0.1551,0.193 -0.3716,0.3266 -0.6621,0.4084c-0.2243,0.0632 -0.3983,0.2347 -0.4728,0.4488z" fill="#ff597a" fill-rule="nonzero" stroke="none" stroke-width="1" stroke-linecap="butt" stroke-linejoin="miter"></path><path d="M11.9785,18h-0.4815c-0.1077,0 -0.195,-0.0895 -0.195,-0.2v-0.4015c0,-0.1056 -0.0801,-0.1924 -0.1825,-0.2041c-0.2438,-0.0277 -0.4796,-0.0794 -0.7075,-0.155c-0.2214,-0.0746 -0.41321,-0.163 -0.57543,-0.2655c-0.07455,-0.0471 -0.10167,-0.1427 -0.07085,-0.2267l0.33028,-0.9006c0.0445,-0.1212 0.188,-0.1676 0.2985,-0.1049c0.1492,0.0845 0.3096,0.1568 0.481,0.2168c0.2555,0.0844 0.5007,0.1266 0.7355,0.1266c0.2019,0 0.3462,-0.0223 0.4327,-0.067c0.0865,-0.0497 0.1298,-0.1217 0.1298,-0.216c0,-0.1092 -0.0577,-0.1911 -0.1731,-0.2457c-0.1112,-0.0546 -0.2967,-0.1142 -0.5562,-0.1787c-0.3338,-0.0844 -0.6119,-0.1738 -0.8344,-0.2681c-0.2225,-0.0993 -0.4162,-0.2582 -0.581,-0.4766c-0.16484,-0.2234 -0.24724,-0.5238 -0.24724,-0.9011c0,-0.4369 0.1298,-0.8117 0.38934,-1.1245c0.234,-0.2774 0.557,-0.465 0.9692,-0.5627c0.0928,-0.022 0.1619,-0.1046 0.1619,-0.2022v-0.4425c0,-0.1105 0.0873,-0.2 0.195,-0.2h0.4815c0.1077,0 0.195,0.0895 0.195,0.2v0.4172c0,0.1022 0.0752,0.1873 0.1736,0.203c0.3611,0.0575 0.6784,0.1664 0.9518,0.3267c0.0776,0.0455 0.1084,0.1423 0.0786,0.2287l-0.3091,0.8969c-0.0409,0.1189 -0.1774,0.1692 -0.2872,0.1124c-0.3482,-0.18 -0.6805,-0.27 -0.9971,-0.27c-0.375,0 -0.5625,0.1092 -0.5625,0.3276c0,0.1043 0.0557,0.1837 0.1669,0.2384c0.1113,0.0496 0.2946,0.1042 0.5501,0.1638c0.3296,0.0745 0.6078,0.1613 0.8344,0.2606c0.2266,0.0943 0.4223,0.2507 0.5872,0.4692c0.1689,0.2184 0.2534,0.5163 0.2534,0.8936c0,0.417 -0.1257,0.7819 -0.3771,1.0947c-0.2189,0.2726 -0.522,0.4634 -0.9091,0.5725c-0.089,0.0251 -0.1539,0.1059 -0.1539,0.2005v0.4642c0,0.1105 -0.0873,0.2 -0.195,0.2z" fill="#ff597a" fill-rule="nonzero" stroke="none" stroke-width="1" stroke-linecap="butt" stroke-linejoin="miter"></path><path d="M9.59235,5h4.22175c1.0813,0 0.4875,1.664 0.0497,2.679l-0.4982,1.164l-0.0673,0.157c0.4719,-0.02349 0.9386,0.11054 1.3299,0.382c1.4639,1.3738 2.652,3.0278 3.4974,4.869c0.3294,0.6808 0.4601,1.4448 0.3763,2.2c-0.1006,1.9249 -1.6063,3.4588 -3.4837,3.549h-6.62997c-1.8779,-0.0875 -3.38583,-1.6198 -3.48855,-3.545c-0.08381,-0.7552 0.04688,-1.5192 0.37635,-2.2c0.84639,-1.843 2.03613,-3.4985 3.5022,-4.873c0.39137,-0.27146 0.85799,-0.40549 1.32987,-0.382l-0.078,-0.181l-0.48747,-1.14c-0.43583,-1.015 -1.03253,-2.679 0.04972,-2.679z" fill="none" fill-rule="evenodd" stroke="#ff597a" stroke-width="1.5" stroke-linecap="round" stroke-linejoin="round"></path><path d="M13.2983,9.75c0.4142,0 0.75,-0.33579 0.75,-0.75c0,-0.41421 -0.3358,-0.75 -0.75,-0.75zM10.1081,8.25c-0.41419,0 -0.74998,0.33579 -0.74998,0.75c0,0.41421 0.33579,0.75 0.74998,0.75zM15.9776,8.64988c0.3589,-0.20676 0.4823,-0.66533 0.2755,-1.02425c-0.2068,-0.35892 -0.6653,-0.48227 -1.0242,-0.27551zM13.3656,8.843l0.1447,0.73591l0.0022,-0.00043zM10.0301,8.819l0.1553,-0.73379l-0.0068,-0.00138zM8.166,7.34357c-0.36254,-0.20035 -0.81885,-0.06888 -1.0192,0.29365c-0.20036,0.36254 -0.06889,0.81885 0.29365,1.01921zM13.2983,8.25h-3.1902v1.5h3.1902zM15.2289,7.35012c-0.627,0.36116 -1.3056,0.61671 -2.0102,0.7574l0.2938,1.47096c0.8653,-0.1728 1.6976,-0.48645 2.4651,-0.9286zM13.2209,8.10709c-1.0034,0.19732 -2.0348,0.1899 -3.0355,-0.02184l-0.31054,1.4675c1.19834,0.25356 2.43374,0.26246 3.63544,0.02616zM10.1786,8.08383c-0.70273,-0.14187 -1.38115,-0.39128 -2.0126,-0.74026l-0.72555,1.31286c0.76481,0.42267 1.58773,0.72541 2.44124,0.89774z" fill="#ff597a" fill-rule="nonzero" stroke="none" stroke-width="1" stroke-linecap="butt" stroke-linejoin="miter"></path></g></g></svg>