<svg version="1.1" xmlns="http://www.w3.org/2000/svg" xmlns:xlink="http://www.w3.org/1999/xlink" width="800px" height="800px" viewBox="0,0,256,256"><g fill="#ff597a" fill-rule="nonzero" stroke="none" stroke-width="1" stroke-linecap="butt" stroke-linejoin="miter" stroke-miterlimit="10" stroke-dasharray="" stroke-dashoffset="0" font-family="none" font-weight="none" font-size="none" text-anchor="none" style="mix-blend-mode: normal"><g transform="translate(3.01333,0.016) scale(10.66667,10.66667)"><path d="M9.36,19.68c-0.24,0 -0.4,0.24 -0.4,0.64c0,0.32 0.16,0.64 0.48,0.64c0.24,0 0.4,-0.24 0.4,-0.64c0,-0.32 -0.16,-0.64 -0.48,-0.64z"></path><path d="M2.96,19.68c0,0.08 -0.08,0.24 -0.08,0.32l-0.08,0.4h0.4l-0.08,-0.4c-0.08,-0.08 -0.08,-0.16 -0.16,-0.32z"></path><path d="M1.44,19.68h-0.16v0.56h0.16c0.24,0 0.32,-0.08 0.32,-0.32c0,-0.24 -0.08,-0.24 -0.32,-0.24z"></path><path d="M7.6,19.68h-0.16v0.56h0.16c0.24,0 0.32,-0.08 0.32,-0.32c0,-0.24 -0.16,-0.24 -0.32,-0.24z"></path><path d="M11.12,19.68h-0.16v0.48h0.16c0.24,0 0.32,-0.08 0.32,-0.24c0,-0.16 -0.16,-0.24 -0.32,-0.24z"></path><path d="M23.12,5.84l-11.68,-5.76c-0.084,-0.053 -0.186,-0.085 -0.295,-0.085c-0.223,0 -0.415,0.132 -0.503,0.322l-0.001,0.003v0.08l-0.24,0.4l-1.36,2.8h4.88h0.016c0.698,0 1.264,0.566 1.264,1.264v0.017v-0.001v18.4c0.08,-0.08 0.16,-0.16 0.16,-0.24l8,-16.4c0.049,-0.082 0.078,-0.182 0.078,-0.288c0,-0.223 -0.128,-0.417 -0.315,-0.51l-0.003,-0.001z"></path><path d="M9.2,14.64c-0.496,-0.174 -1.069,-0.288 -1.665,-0.319l-0.015,-0.001v2.32c0.83,-0.378 1.447,-1.1 1.675,-1.979z"></path><path d="M9.44,9.68c-0.544,0.203 -1.173,0.321 -1.829,0.321c-0.032,0 -0.064,0 -0.095,-0.001h0.005v1.28h2.16c-0.008,-0.573 -0.095,-1.123 -0.251,-1.642l0.011,0.042z"></path><path d="M7.52,7.12v2.16c0.022,0 0.049,0.001 0.075,0.001c0.579,0 1.131,-0.118 1.632,-0.331l-0.027,0.01c-0.218,-0.865 -0.847,-1.546 -1.662,-1.834z"></path><path d="M10.24,14.16c0.29,0.159 0.514,0.409 0.637,0.711l0.003,0.009c0.622,-0.71 1.03,-1.62 1.119,-2.622l0.001,-0.018h-1.52c0.006,0.094 0.009,0.205 0.009,0.316c0,0.573 -0.091,1.125 -0.26,1.642l0.011,-0.037z"></path><path d="M3.92,15.52c0.252,0.224 0.542,0.412 0.859,0.552l0.021,0.008c-0.221,-0.3 -0.41,-0.643 -0.55,-1.01l-0.01,-0.03c-0.148,0.124 -0.259,0.287 -0.318,0.473z"></path><path d="M10.32,7.92c-0.3,-0.235 -0.639,-0.472 -0.991,-0.691l-0.049,-0.029c0.285,0.345 0.527,0.741 0.708,1.169l0.012,0.031c0.16,0 0.32,-0.24 0.32,-0.48z"></path><path d="M9.44,16.08c0.309,-0.147 0.573,-0.335 0.8,-0.56c-0.028,-0.206 -0.149,-0.379 -0.317,-0.478l-0.003,-0.002c-0.082,0.399 -0.25,0.749 -0.484,1.045z"></path><path d="M10.56,11.36h1.52c-0.113,-1.031 -0.486,-1.958 -1.051,-2.736l0.011,0.016c-0.156,0.315 -0.405,0.564 -0.711,0.716l-0.009,0.004c0.08,0.64 0.16,1.28 0.24,2z"></path><path d="M9.68,12.24h-2.16v1.2c0.696,0.019 1.353,0.164 1.956,0.413l-0.036,-0.013c0.145,-0.477 0.232,-1.027 0.24,-1.596z"></path><path d="M4.72,7.44c-0.308,0.119 -0.573,0.281 -0.803,0.483l0.003,-0.003c0.013,0.193 0.103,0.362 0.239,0.479l0.001,0.001c0.128,-0.371 0.319,-0.691 0.562,-0.963z"></path><path d="M3.92,9.28c-0.253,-0.174 -0.466,-0.387 -0.635,-0.632l-0.005,-0.008c-0.624,0.765 -1.032,1.728 -1.119,2.782l-0.001,0.018h1.44c0.018,-0.776 0.133,-1.517 0.335,-2.222z"></path><path d="M6.64,16.48v-2.16c-0.601,0.068 -1.143,0.18 -1.667,0.337l0.067,-0.017c0.207,0.847 0.803,1.521 1.582,1.834z"></path><path d="M14.24,5.12c0,-0.007 0,-0.016 0,-0.024c0,-0.321 -0.245,-0.585 -0.558,-0.615h-0.003h-13.04c-0.016,-0.002 -0.035,-0.002 -0.054,-0.002c-0.325,0 -0.589,0.264 -0.589,0.589c0,0.019 0.001,0.038 0.003,0.056v-0.002v18.24v0.009c0,0.349 0.283,0.631 0.631,0.631h0.009h12.96c0.343,-0.024 0.616,-0.297 0.64,-0.638v-0.002zM1.36,11.2c0.255,-2.808 2.472,-5.025 5.257,-5.278l0.023,-0.002v-0.08h0.88v0.08c2.973,0.236 5.297,2.706 5.297,5.72c0,3.168 -2.568,5.737 -5.737,5.737c-0.155,0 -0.308,-0.006 -0.46,-0.018l0.02,0.001c-2.977,-0.263 -5.293,-2.744 -5.293,-5.767c0,-0.138 0.005,-0.276 0.014,-0.411zM1.44,20.56h-0.16v0.64h-0.4v-1.84h0.56c0.026,-0.003 0.056,-0.005 0.087,-0.005c0.18,0 0.345,0.062 0.475,0.166l-0.002,-0.001c0.16,0.08 0.16,0.24 0.16,0.4c-0.003,0.155 -0.063,0.295 -0.16,0.4c-0.133,0.148 -0.326,0.24 -0.54,0.24c-0.007,0 -0.014,0 -0.021,0zM3.36,21.2l-0.16,-0.48h-0.48l-0.16,0.48h-0.4l0.56,-1.84h0.56l0.56,1.84zM4.48,21.2c-0.023,0.002 -0.051,0.003 -0.078,0.003c-0.145,0 -0.283,-0.031 -0.408,-0.086l0.006,0.003l0.08,-0.32c0.118,0.052 0.257,0.083 0.402,0.083c0.027,0 0.055,-0.001 0.082,-0.003h-0.004c0.16,0 0.24,-0.08 0.24,-0.16c0,-0.08 -0.08,-0.16 -0.32,-0.24c-0.24,-0.16 -0.48,-0.32 -0.48,-0.56c0,-0.32 0.24,-0.56 0.72,-0.56c0.023,-0.002 0.051,-0.003 0.078,-0.003c0.145,0 0.283,0.031 0.408,0.086l-0.006,-0.003l-0.08,0.32c-0.088,-0.054 -0.196,-0.087 -0.31,-0.087c-0.032,0 -0.063,0.002 -0.093,0.007h0.003c-0.16,0 -0.24,0.08 -0.24,0.16c0,0.08 0.08,0.16 0.32,0.24c0.27,0.05 0.473,0.28 0.48,0.559v0.001c0,0.32 -0.24,0.56 -0.8,0.56zM6,21.2c-0.023,0.002 -0.051,0.003 -0.078,0.003c-0.145,0 -0.283,-0.031 -0.408,-0.086l0.006,0.003v-0.32c0.118,0.052 0.257,0.083 0.402,0.083c0.027,0 0.055,-0.001 0.082,-0.003h-0.004c0.16,0 0.32,-0.08 0.32,-0.16c0,-0.08 -0.08,-0.16 -0.32,-0.24c-0.271,-0.025 -0.481,-0.251 -0.481,-0.527c0,-0.012 0,-0.023 0.001,-0.035v0.002c0,-0.32 0.24,-0.56 0.72,-0.56c0.023,-0.002 0.051,-0.003 0.078,-0.003c0.145,0 0.283,0.031 0.408,0.086l-0.006,-0.003l-0.08,0.32c-0.088,-0.054 -0.196,-0.087 -0.31,-0.087c-0.032,0 -0.063,0.002 -0.093,0.007h0.003c-0.16,0 -0.24,0.08 -0.24,0.16c0,0.08 0.08,0.16 0.32,0.24c0.27,0.05 0.473,0.28 0.48,0.559v0.001c-0.062,0.326 -0.345,0.57 -0.685,0.57c-0.041,0 -0.08,-0.003 -0.119,-0.01l0.004,0.001zM8.16,20.4c-0.098,0.113 -0.241,0.184 -0.402,0.184c-0.056,0 -0.111,-0.009 -0.162,-0.025l0.004,0.001h-0.16v0.64h-0.4v-1.84h0.56c0.026,-0.003 0.056,-0.005 0.087,-0.005c0.18,0 0.345,0.062 0.475,0.166l-0.002,-0.001c0.16,0.08 0.16,0.24 0.16,0.4c-0.018,0.18 -0.075,0.343 -0.163,0.485zM10.24,20.24c0.005,0.035 0.008,0.076 0.008,0.117c0,0.454 -0.358,0.823 -0.806,0.843h-0.002h-0.16c-0.484,-0.004 -0.876,-0.396 -0.88,-0.88v-0.08c-0.002,-0.021 -0.003,-0.045 -0.003,-0.069c0,-0.462 0.35,-0.842 0.799,-0.891h0.004h0.08h0.004c0.458,0 0.834,0.35 0.876,0.797v0.004zM11.44,21.2c-0.08,-0.16 -0.08,-0.24 -0.16,-0.4c-0.08,-0.24 -0.16,-0.32 -0.32,-0.32h-0.16v0.72h-0.4v-1.84h0.56c0.034,-0.006 0.073,-0.009 0.113,-0.009c0.172,0 0.329,0.064 0.448,0.17l-0.001,-0.001c0.097,0.105 0.157,0.245 0.16,0.399v0.001c-0.005,0.213 -0.134,0.395 -0.317,0.479l-0.003,0.001c0.16,0.08 0.16,0.16 0.24,0.32c0.018,0.18 0.075,0.343 0.163,0.485l-0.003,-0.005zM13.44,19.76h-0.48v1.44h-0.4v-1.44h-0.56v-0.32h1.36v0.32z"></path><path d="M3.92,14.16c-0.137,-0.563 -0.25,-1.245 -0.315,-1.941l-0.005,-0.059h-1.36c0.114,1.004 0.487,1.905 1.05,2.654l-0.01,-0.014c0.174,-0.253 0.387,-0.466 0.632,-0.635z"></path><path d="M6.64,12.24h-2.16c0.001,0.571 0.089,1.122 0.251,1.639l-0.011,-0.039c0.561,-0.196 1.213,-0.338 1.889,-0.398l0.031,-0.002z"></path><path d="M6.64,6.96c-0.88,0.16 -1.44,1.12 -1.68,1.84c0.491,0.196 1.06,0.337 1.653,0.398l0.027,0.002z"></path><path d="M6.64,11.36v-1.28c-0.696,-0.019 -1.353,-0.164 -1.956,-0.413l0.036,0.013c-0.151,0.503 -0.239,1.081 -0.24,1.679v0.001z"></path></g></g></svg>