<svg version="1.1" xmlns="http://www.w3.org/2000/svg" xmlns:xlink="http://www.w3.org/1999/xlink" width="800px" height="800px" viewBox="0,0,256,256"><g fill="#ff597a" fill-rule="nonzero" stroke="none" stroke-width="1" stroke-linecap="butt" stroke-linejoin="miter" stroke-miterlimit="10" stroke-dasharray="" stroke-dashoffset="0" font-family="none" font-weight="none" font-size="none" text-anchor="none" style="mix-blend-mode: normal"><g transform="translate(21.34733,-1.04302) scale(12.54902,12.54902)"><path d="M16.416,10.283c0,3.20222 -1.92902,6.08911 -4.88753,7.31445c-2.9585,1.22534 -6.36382,0.54781 -8.62799,-1.71664c-2.26417,-2.26445 -2.94127,-5.66986 -1.71555,-8.62821c1.22572,-2.95835 4.11285,-4.88701 7.31507,-4.8866c2.09963,0 4.11324,0.83414 5.59781,2.3189c1.48457,1.48475 2.31845,3.49848 2.31819,5.5981zM13.458,10.293c0,-0.43741 -0.35459,-0.792 -0.792,-0.792h-3.382v-3.381c0.01029,-0.28949 -0.13828,-0.5615 -0.3874,-0.70929c-0.24913,-0.1478 -0.55907,-0.1478 -0.80819,0c-0.24913,0.1478 -0.39769,0.41981 -0.3874,0.70929v3.38h-3.381c-0.43741,0 -0.792,0.35459 -0.792,0.792c0,0.43741 0.35459,0.792 0.792,0.792h3.38v3.382c0.01515,0.42619 0.36504,0.76386 0.7915,0.76386c0.42646,0 0.77635,-0.33767 0.7915,-0.76386v-3.382h3.382c0.43702,0 0.79145,-0.35398 0.792,-0.791z"></path></g></g></svg>