<svg version="1.1" xmlns="http://www.w3.org/2000/svg" xmlns:xlink="http://www.w3.org/1999/xlink" width="800px" height="800px" viewBox="0,0,256,256"><g fill="#ff597a" fill-rule="nonzero" stroke="none" stroke-width="1" stroke-linecap="butt" stroke-linejoin="miter" stroke-miterlimit="10" stroke-dasharray="" stroke-dashoffset="0" font-family="none" font-weight="none" font-size="none" text-anchor="none" style="mix-blend-mode: normal"><g transform="translate(350.95,-149.75)"><path d="M-131.1,268.3h-78.6l21.3,-61.3v0c1.8,-4.4 2.8,-9.2 2.8,-14.2c0,-20.6 -16.7,-37.3 -37.3,-37.3c-20.6,0 -37.3,16.8 -37.3,37.3c0,5 1,9.8 2.8,14.2v0l21.3,61.3h-78.8l-33.5,131.7h250.9zM-222.9,175c9.8,0 17.9,8 17.9,17.9c0,9.9 -8,17.9 -17.9,17.9c-9.9,0 -17.9,-8 -17.9,-17.9c-0.1,-9.9 8,-17.9 17.9,-17.9zM-310.2,280c0.4,0.2 0.9,0.3 1.4,0.3c1,0 1.9,-0.4 2.7,-1.1c0.7,-0.6 1.1,-1.6 1.1,-2.7c0,-0.3 0,-0.5 -0.1,-0.7h71.6l10.7,30.8l10.7,-30.8h75.4l28.7,113.3c-0.6,0.1 -1.3,0.4 -1.7,1c-0.7,0.7 -1.1,1.6 -1.1,2.7v0h-228zM-207.8,367.9c-1.9,-0.5 -4.1,0.5 -4.6,2.6c-0.5,2 0.5,4.1 2.6,4.6c0.3,0.1 0.7,0.1 1.1,0.1c1.6,0 3.1,-1.1 3.6,-2.7c0.4,-2 -0.8,-4 -2.7,-4.6zM-187.8,371.8c-2,-0.3 -4,1 -4.4,3c-0.3,2 1,4 3,4.4v0c0.2,0 0.4,0.1 0.6,0.1c1.8,0 3.3,-1.3 3.6,-3.1c0.6,-2.1 -0.8,-4 -2.8,-4.4zM-223.5,311.6c-4.4,0.2 -7.8,4 -7.7,8.3c0.2,4.3 3.7,7.7 8,7.7c0.1,0 0.2,0 0.3,0c4.5,-0.2 7.9,-4 7.7,-8.3c-0.2,-4.4 -4,-7.8 -8.3,-7.7zM-126.6,384.4c-2,-0.4 -4.1,0.9 -4.5,2.9c-0.4,2 0.9,4.1 2.9,4.5c0.2,0 0.5,0.1 0.9,0.1c1.7,0 3.3,-1.2 3.6,-3c0.4,-2.1 -0.8,-4.1 -2.9,-4.5zM-227,343.9c0.3,0 0.5,0.1 0.9,0.1c1.7,0 3.3,-1.2 3.6,-3c0.4,-2 -0.9,-4.1 -2.9,-4.5c-2,-0.4 -4.1,0.9 -4.5,2.9c-0.4,2 0.9,3.9 2.9,4.5zM-146.9,380c-2,-0.4 -4.1,0.9 -4.5,2.9c-0.4,2 0.9,4.1 2.9,4.4c0.2,0 0.5,0.1 0.7,0.1c1.7,0 3.3,-1.2 3.6,-3c0.6,-1.9 -0.8,-4 -2.7,-4.4zM-167.3,375.8c-2,-0.4 -4.1,0.9 -4.4,2.9c-0.4,2 0.9,4 2.9,4.4c0.2,0.1 0.5,0.1 0.7,0.1c1.7,0 3.3,-1.2 3.6,-3c0.5,-2 -0.8,-4 -2.8,-4.4zM-270,285.7c-2,-0.2 -4,1.2 -4.2,3.2c-0.2,2 1.2,4 3.2,4.2c0.1,0 0.3,0 0.4,0c1.8,0 3.4,-1.4 3.7,-3.3c0.4,-2.1 -1.1,-3.9 -3.1,-4.1zM-290.2,282.6c-2,-0.4 -4.1,0.9 -4.5,2.8c-0.4,2 0.9,4.1 2.8,4.5c0.3,0 0.5,0.1 0.9,0.1c1.7,0 3.2,-1.2 3.6,-2.9c0.5,-2 -0.8,-4.1 -2.8,-4.5zM-228.3,303.6c1.4,-1.6 1.2,-4 -0.3,-5.2c-1.6,-1.4 -4,-1.2 -5.2,0.3c-1.4,1.6 -1.2,4 0.3,5.2c0.7,0.6 1.6,1 2.5,1c0.8,-0.1 1.9,-0.5 2.7,-1.3zM-249.1,289c-2,-0.4 -4.1,0.7 -4.5,2.8c-0.4,2.1 0.7,4.1 2.8,4.5v0c0.3,0.1 0.5,0.1 0.9,0.1c1.7,0 3.2,-1.2 3.6,-2.9c0.4,-2 -0.8,-3.9 -2.8,-4.5zM-227.7,357.2c-1.8,1 -2.5,3.2 -1.5,5c0.6,1.3 1.9,1.9 3.3,1.9c0.6,0 1.2,-0.1 1.8,-0.4c1.8,-1 2.5,-3.2 1.5,-5.1c-0.9,-1.7 -3.3,-2.4 -5.1,-1.4z"></path></g></g></svg>