<svg version="1.1" xmlns="http://www.w3.org/2000/svg" xmlns:xlink="http://www.w3.org/1999/xlink" width="800px" height="800px" viewBox="0,0,256,256"><g fill="#ff597a" fill-rule="evenodd" stroke="none" stroke-width="1" stroke-linecap="butt" stroke-linejoin="miter" stroke-miterlimit="10" stroke-dasharray="" stroke-dashoffset="0" font-family="none" font-weight="none" font-size="none" text-anchor="none" style="mix-blend-mode: normal"><g transform="translate(2.13184,0) scale(0.5,0.5)"><g id="Page-1"><g transform="translate(42.66667,42.66667)" id="support"><path d="M379.73436,174.50667c-6.61333,-67.84 -46.72,-174.50667 -170.66667,-174.50667c-123.94667,0 -164.05333,106.66667 -170.66667,174.50667c-23.19976,8.8049 -38.50267,31.07913 -38.40051,55.89333v29.86667c0,32.98981 26.74404,59.73333 59.73385,59.73333c32.98981,0 59.73333,-26.74352 59.73333,-59.73333v-29.86667c-0.10726,-24.27854 -14.84812,-46.09503 -37.33333,-55.25333c4.26667,-39.25333 25.17333,-132.48 126.93333,-132.48c101.76,0 122.45333,93.22667 126.72,132.48c-22.43971,9.17814 -37.10613,31.00918 -37.12,55.25333v29.86667c0.09267,22.93298 13.26093,43.80344 33.92,53.76c-8.96,16.85333 -31.78667,39.68 -87.89333,46.50667c-11.21549,-17.03051 -32.91413,-23.74429 -51.78786,-16.02368c-18.87373,7.72061 -29.64607,27.71717 -25.7102,47.72553c3.93587,20.00836 21.4796,34.43148 41.8714,34.43148c16.11386,-0.08924 30.8028,-9.2492 37.97333,-23.68c91.52,-10.45333 120.74667,-57.6 129.92,-85.33333c24.81743,-8.039 41.50786,-31.30183 41.17333,-57.38667v-29.86667c0.10266,-24.8142 -15.20024,-47.08843 -38.4,-55.89333zM76.80102,260.26667c0,9.42566 -7.64101,17.06667 -17.06667,17.06667c-9.42566,0 -17.06667,-7.64101 -17.06667,-17.06667v-29.86667c0,-6.09733 3.25289,-11.7315 8.53333,-14.78017c5.28045,-3.04867 11.78622,-3.04867 17.06667,0c5.28045,3.04867 8.53333,8.68283 8.53333,14.78017zM341.33436,230.4c0,-9.42566 7.64101,-17.06667 17.06667,-17.06667c9.42566,0 17.06667,7.64101 17.06667,17.06667v29.86667c0,9.42566 -7.64101,17.06667 -17.06667,17.06667c-9.42566,0 -17.06667,-7.64101 -17.06667,-17.06667z"></path></g></g></g></g></svg>