<svg version="1.1" xmlns="http://www.w3.org/2000/svg" xmlns:xlink="http://www.w3.org/1999/xlink" width="800px" height="800px" viewBox="0,0,256,256"><g fill="#ff597a" fill-rule="nonzero" stroke="none" stroke-width="1" stroke-linecap="butt" stroke-linejoin="miter" stroke-miterlimit="10" stroke-dasharray="" stroke-dashoffset="0" font-family="none" font-weight="none" font-size="none" text-anchor="none" style="mix-blend-mode: normal"><g transform="translate(-0.00025,-0.00025) scale(0.5,0.5)"><g><rect x="220.047" y="0" width="71.906" height="74.797"></rect><path d="M291.953,123.688c0,-17.25 0,-31.625 0,-31.625h-71.906c0,0 0,14.375 0,31.625c0,37.391 -51.766,51.766 -51.766,117.938c0,31.625 0,245.922 0,245.922c0,13.516 10.938,24.453 24.438,24.453h126.563c13.5,0 24.438,-10.938 24.438,-24.453c0,0 0,-214.297 0,-245.922c-0.001,-66.173 -51.767,-80.548 -51.767,-117.938zM303.469,428.578h-94.938v-189.828h94.938z"></path></g></g></g></svg>